<svg xmlns="http://www.w3.org/2000/svg" width="32" height="32" fill="none" viewBox="0 0 32 32">
  <g clip-path="url(#a)">
    <g clip-path="url(#b)" filter="url(#c)">
      <path fill="#46A3E5" d="m20.4 29.808-1.15-.64v-.785l6.397-2.796 1.142 1.451-6.389 2.77Z"/>
      <path fill="#46A3E5" d="M21.512 29.168H19.25V5.63l2.262 1.01v22.528ZM5.21 4.958h2.262V18.52l-2.261 1.009V4.958Zm21.58 22.08h-2.262V13.476l2.261-1.009v14.571Z"/>
      <path fill="#46A3E5" d="m11.6 2.188 1.15.64v.785L6.353 6.409 5.211 4.958l6.389-2.77Z"/>
      <path fill="#46A3E5" d="M10.488 2.828h2.262v23.52l-2.262-.965V2.828Z"/>
      <path fill="#46A3E5" d="m25.807 8.522 1.13.47v.986l-14.294 6.135-1.131-1.456 14.295-6.135ZM6.193 23.474l-1.13-.47v-.986l14.294-6.135 1.131 1.456-14.295 6.135Z"/>
      <path fill="#46A3E5" d="M26.923 8.937v1.065l-1.13.448-6.552-2.802V5.647l7.682 3.29ZM5.077 23.06v-1.066l1.13-.448 6.552 2.802v2.001l-7.682-3.29Z"/>
    </g>
  </g>
  <defs>
    <clipPath id="a">
      <path fill="#fff" d="M0 0h32v32H0z"/>
    </clipPath>
    <clipPath id="b">
      <path fill="#fff" d="M0 0h32v32H0z"/>
    </clipPath>
    <filter id="c" width="25" height="30.746" x="4" y="1.625" color-interpolation-filters="sRGB" filterUnits="userSpaceOnUse">
      <feFlood flood-opacity="0" result="BackgroundImageFix"/>
      <feColorMatrix in="SourceAlpha" result="hardAlpha" values="0 0 0 0 0 0 0 0 0 0 0 0 0 0 0 0 0 0 127 0"/>
      <feOffset dx=".5" dy="1"/>
      <feGaussianBlur stdDeviation=".781"/>
      <feComposite in2="hardAlpha" operator="out"/>
      <feColorMatrix values="0 0 0 0 0 0 0 0 0 0 0 0 0 0 0 0 0 0 0.25 0"/>
      <feBlend in2="BackgroundImageFix" result="effect1_dropShadow_3_20"/>
      <feBlend in="SourceGraphic" in2="effect1_dropShadow_3_20" result="shape"/>
    </filter>
  </defs>
</svg>
