<svg xmlns="http://www.w3.org/2000/svg" width="1582" height="400" fill="none" viewBox="0 0 1582 400">
  <g clip-path="url(#a)">
    <path fill="#7544D9" d="M0 0h1582v400H0z"/>
    <path stroke="#8551EC" stroke-width="35" d="M1 0s129.5 354.5 224.5 365.845c163.836 19.565 239-320.331 387.5-332.5 148.5-12.169 206.697 301.406 428.5 332.5 214 30 540-367.845 540-367.845"/>
    <path fill="#54AFF4" fill-rule="evenodd" d="M290.5 184.7c13.365 0 24.2-10.835 24.2-24.2 0-13.365-10.835-24.2-24.2-24.2-13.365 0-24.2 10.835-24.2 24.2 0 13.365 10.835 24.2 24.2 24.2Zm0 3.3c15.188 0 27.5-12.312 27.5-27.5S305.688 133 290.5 133 263 145.312 263 160.5s12.312 27.5 27.5 27.5Zm956 46.7c13.37 0 24.2-10.835 24.2-24.2 0-13.365-10.83-24.2-24.2-24.2s-24.2 10.835-24.2 24.2c0 13.365 10.83 24.2 24.2 24.2Zm0 3.3c15.19 0 27.5-12.312 27.5-27.5s-12.31-27.5-27.5-27.5-27.5 12.312-27.5 27.5 12.31 27.5 27.5 27.5Z" clip-rule="evenodd"/>
  </g>
  <defs>
    <clipPath id="a">
      <path fill="#fff" d="M0 0h1582v400H0z"/>
    </clipPath>
  </defs>
</svg>
