<svg xmlns="http://www.w3.org/2000/svg" width="900" height="200" fill="none" viewBox="0 0 900 200">
  <path fill="#54AFF4" fill-rule="evenodd" d="M179.717 25.238c1.716-.45 3.739-.357 5.449 1.113 1.525 1.312 2.193 3.063 2.075 4.918-.104 1.644-.81 3.175-1.555 4.43-1.226 2.065-3.134 4.28-4.781 6.194-.339.393-.666.773-.975 1.137-2.145 2.53-6.243 5.984-9.61 8.678a233.2 233.2 0 0 1-5.874 4.544l-.384.286-.086.064c-.564.457-1.133.913-1.708 1.365v.1c.012 3.179 1.151 4.992 2.499 5.765 1.876 1.075 5.463 1.789 9.928 1.858 4.354.068 9.089-.48 12.973-1.55l.392-.107c8.513-2.342 22.25-6.121 30.442-11.556A40.992 40.992 0 0 0 220 51.433l.005-.11a23.326 23.326 0 0 1 1.1-6.08c.047-.144.089-.264.122-.358l.007-.027.011-.048c.041-.172.102-.416.182-.719.161-.605.404-1.453.739-2.451.664-1.98 1.715-4.63 3.25-7.165 1.046-1.725 2.574-3.575 4.493-4.565 1.001-.516 2.213-.85 3.536-.67 1.348.183 2.533.862 3.506 1.877 1.375 1.433 1.754 3.215 1.715 4.744-.039 1.48-.464 2.897-.908 4.02a20.964 20.964 0 0 1-1.423 2.875 20.795 20.795 0 0 1-.705 1.115l-.051.073-.016.024-.006.008-.002.003-.001.002.009-.013-.05.068v.001l-.008.01-.016.022-.058.076-.21.271c-.181.232-.443.562-.781.972a66.748 66.748 0 0 1-2.879 3.262 64.879 64.879 0 0 1-5.883 5.534c.302 1.944 1.115 3.864 2.824 5.43 3.097 2.842 5.63 4.427 9.186 5.38 3.715.997 8.667 1.34 16.707 1.34 7.75 0 18.75-1.809 27.967-3.668a368.416 368.416 0 0 0 15.047-3.375c.405-.1.719-.18.93-.233l.239-.06.077-.02.673 2.776.672 2.777-.088.023-.251.064-.956.239a373.22 373.22 0 0 1-15.279 3.427c-9.228 1.862-20.693 3.775-29.031 3.775-8.046 0-13.634-.325-18.102-1.523-4.626-1.241-7.918-3.377-11.477-6.642a14.389 14.389 0 0 1-3.982-6.168c-8.979 5.692-22.894 9.516-30.995 11.742l-.741.204c-4.437 1.221-9.687 1.818-14.487 1.743-4.687-.074-9.421-.792-12.538-2.579-2.626-1.506-4.239-4.076-4.94-7.086-6.322 4.29-13.731 7.833-23.879 9.142l-.046.006-.047.004c-12.886 1.21-21.832-1.611-33.161-7.76l2.582-5.066c10.675 5.793 18.535 8.2 30.031 7.13 10.573-1.374 17.797-5.388 24.348-10.297.562-3.736 2.115-7.81 4.69-11.891a62.815 62.815 0 0 1 5.784-7.796c2.088-2.394 4.898-5.457 7.69-7.557 1.384-1.04 2.961-1.998 4.592-2.427Zm47.099 20.222a61.344 61.344 0 0 0 3.399-3.782 42.884 42.884 0 0 0 .857-1.073l.022-.03.006-.008.105-.157c.095-.145.233-.362.393-.633.326-.552.717-1.285 1.025-2.063.319-.805.484-1.496.497-2.005.012-.443-.087-.541-.109-.563l-.003-.002c-.157-.164-.253-.215-.287-.228-.024 0-.127.009-.332.115-.619.319-1.477 1.171-2.269 2.479-1.238 2.045-2.128 4.262-2.712 6.002a34.588 34.588 0 0 0-.592 1.948Zm5.89-10.547s.006 0 .015.003a.068.068 0 0 1-.015-.003Zm2.857 9.055-.05.068.021-.027.019-.027.01-.014Zm-70.832 4.944a210.07 210.07 0 0 0 2.19-1.728c3.429-2.745 7.097-5.875 8.835-7.924.382-.45.761-.892 1.132-1.324 1.64-1.91 3.125-3.64 4.068-5.228.572-.963.733-1.543.75-1.813a.086.086 0 0 1 .007-.03c.007-.022.008-.024-.098-.116-.021-.017-.022-.018-.035-.02h-.006c-.044-.008-.194-.02-.488.058-.635.166-1.542.639-2.694 1.505-2.28 1.715-4.754 4.376-6.835 6.76a57.197 57.197 0 0 0-5.258 7.09 32.626 32.626 0 0 0-1.568 2.77ZM50 194c24.3 0 44-19.699 44-44s-19.7-44-44-44-44 19.699-44 44 19.7 44 44 44Zm0 6c27.614 0 50-22.386 50-50s-22.386-50-50-50-50 22.386-50 50 22.386 50 50 50Zm100.338-100 12.449 29.234 37.213.685-30.084 16.057L189 190.797l-44.416-31.3-43.183 23.049 22.363-37.721L100 128.079l33.328.613L150.338 100Zm-19.964 33.676-14.054-.259 10.021 7.061 4.033-6.802Zm.097 9.713 5.695-9.607 23.265.429 4.042 9.494-18.524 9.887-14.478-10.203Zm-2.577 4.347L114.92 169.62l25.054-13.372-12.08-8.512Zm21.666 9.105 27.87 19.64-11.975-28.124-15.895 8.484Zm18.374-15.517 12.6-6.725-15.585-.287 2.985 7.012Zm-10.666-12.191-18.147-.334 10.479-17.676 7.668 18.01Z" clip-rule="evenodd"/>
  <path fill="#fff" fill-rule="evenodd" d="M93 1.5A4.5 4.5 0 0 1 97.5 6v24a4.5 4.5 0 1 1-9 0V6A4.5 4.5 0 0 1 93 1.5ZM64 63a4.5 4.5 0 0 1-6.364.034l-41.102-40.67a4.5 4.5 0 0 1 6.33-6.398l41.102 40.67A4.5 4.5 0 0 1 64 63ZM42 94.5a4.5 4.5 0 0 1-5.295 3.53L13.03 93.295a4.5 4.5 0 0 1 1.765-8.825l23.675 4.735A4.5 4.5 0 0 1 42 94.5Z" clip-rule="evenodd"/>
</svg>
