<svg xmlns="http://www.w3.org/2000/svg" width="900" height="400" fill="none" viewBox="0 0 900 400">
  <g clip-path="url(#a)">
    <path fill="#DD0031" d="m249.914 100-45.976 16.397 7.011 60.79 38.965 21.58 38.964-21.58 7.012-60.791L249.914 100Z"/>
    <path fill="#C3002F" d="M249.914 100v10.964-.05 87.853l38.964-21.58 7.012-60.791L249.914 100Z"/>
    <path fill="#fff" d="m249.914 110.914-28.74 64.445h10.716l5.774-14.421h24.396l5.779 14.422h10.716l-28.641-64.446Zm8.394 41.135h-16.789l8.395-20.198 8.394 20.198Z"/>
    <path fill="#019639" d="M749.837 306.25h.204a32.612 32.612 0 0 1 3.037 1.65l33.931 19.519a2.472 2.472 0 0 1 1.294 2.462c-.025 13.716 0 27.428-.016 41.138a2.539 2.539 0 0 1-1.112 1.584 72838.544 72838.544 0 0 1-36.084 20.763 1.832 1.832 0 0 1-2.054.115 17699.304 17699.304 0 0 1-36.09-20.75 2.18 2.18 0 0 1-.94-.851 2.178 2.178 0 0 1-.31-1.23v-41.134a2.166 2.166 0 0 1 1.209-2.094 73485.803 73485.803 0 0 0 33.888-19.5c1.006-.575 1.993-1.184 3.043-1.672Z"/>
    <path fill="#fff" d="M727.397 332.931v33.935a4.704 4.704 0 0 0 1.334 3.396 5.145 5.145 0 0 0 6.438.644 4.89 4.89 0 0 0 2.14-4.04c0-8.188-.015-16.375 0-24.563 7.465 8.938 14.945 17.863 22.441 26.775a8.85 8.85 0 0 0 8.125 2.444 4.879 4.879 0 0 0 3.909-4.285c.017-11.543.017-23.086 0-34.628a4.94 4.94 0 0 0-4.925-4.513 4.943 4.943 0 0 0-4.925 4.513c0 8.319-.05 16.628 0 24.944-7.331-8.644-14.571-17.362-21.875-26.037a8.795 8.795 0 0 0-8.278-3.288 4.936 4.936 0 0 0-4.384 4.703Z"/>
    <g clip-path="url(#b)">
      <path fill="#FAAD3F" stroke="#fff" stroke-width="2" d="M884.333 312.499a5.17 5.17 0 1 1-5.166-5.166m5.166 5.166a5.171 5.171 0 0 0-5.166-5.166m5.166 5.166v.001h-1l1-.001Zm-5.166-5.166v1l.001-1h-.001Zm-11.73 2h.706l.236-.664c1.591-4.46 5.807-7.669 10.788-7.669 6.339 0 11.5 5.161 11.5 11.5s-5.16 11.499-11.499 11.5a11.485 11.485 0 0 1-10.792-7.666l-.235-.667h-36.282l-.235.667A11.486 11.486 0 0 1 820.832 324c-6.339-.001-11.499-5.161-11.499-11.5s5.16-11.499 11.499-11.5a11.492 11.492 0 0 1 10.792 7.666l.235.667h35.578Zm-51.769 3.122-.002.045.002.045a5.17 5.17 0 0 0 10.331 0l.002-.045-.002-.045a5.174 5.174 0 0 0-5.166-4.939 5.17 5.17 0 0 0-5.165 4.939Z"/>
    </g>
    <path fill="#FAAD3F" stroke="#fff" stroke-width="2" d="M884.333 270.833a5.167 5.167 0 0 1-3.189 4.781 5.167 5.167 0 0 1-5.638-1.12 5.172 5.172 0 0 1 3.662-8.827m5.165 5.166a5.17 5.17 0 0 0-5.165-5.166m5.165 5.166h-1l1-.001v.001Zm-5.165-5.166-.001 1v-1h.001Zm5.165-36.501a5.167 5.167 0 0 1-3.189 4.781 5.175 5.175 0 0 1-5.638-1.12 5.168 5.168 0 0 1-1.12-5.637 5.175 5.175 0 0 1 4.781-3.19m5.166 5.166a5.17 5.17 0 0 0-5.166-5.166m5.166 5.166v.001h-1l1-.001ZM879.167 224v1l.001-1h-.001Zm-46.6 8.333h-.708l-.235.668a11.486 11.486 0 0 1-10.792 7.666c-6.339-.001-11.499-5.162-11.499-11.5 0-6.339 5.16-11.499 11.499-11.5a11.484 11.484 0 0 1 10.792 7.666l.235.667h3.558c4.562 0 8.744 1.939 11.906 5.145a30.171 30.171 0 0 0-3.544 5.525c-2.055-2.625-5.01-4.337-8.362-4.337h-2.85Zm-16.899-3.211-.002.045.002.044a5.165 5.165 0 0 0 1.592 3.506 5.166 5.166 0 0 0 7.147 0 5.174 5.174 0 0 0 1.592-3.506l.002-.044-.002-.045a5.174 5.174 0 0 0-5.166-4.94 5.17 5.17 0 0 0-5.165 4.94Zm51.769 38.545h.706l.236-.664c1.591-4.461 5.807-7.67 10.788-7.67 6.339 0 11.5 5.161 11.5 11.5s-5.16 11.5-11.499 11.5a11.482 11.482 0 0 1-10.792-7.666l-.235-.667h-2.17c-5.053 0-9.647-2.056-13.075-5.405a30.248 30.248 0 0 0 3.453-5.544c2.338 2.816 5.773 4.616 9.626 4.616h1.462Zm-34.926 6.072-.615.086-.195.59c-1.522 4.591-5.796 7.918-10.868 7.918-6.339 0-11.5-5.16-11.5-11.5 0-6.339 5.16-11.499 11.499-11.5a11.503 11.503 0 0 1 10.698 7.36l.303.788.828-.168a17.681 17.681 0 0 0 14.172-17.312V250c0-12.092 9.003-22.099 20.656-23.739l.615-.086.195-.59c1.522-4.591 5.796-7.918 10.868-7.918 6.339 0 11.5 5.16 11.5 11.5 0 6.338-5.16 11.499-11.499 11.5a11.498 11.498 0 0 1-6.486-2.026 11.497 11.497 0 0 1-4.212-5.334l-.304-.788-.827.168a17.681 17.681 0 0 0-14.172 17.312V250c0 12.092-9.003 22.099-20.656 23.739Zm-16.843-2.95-.002.044.002.045a5.17 5.17 0 0 0 10.331 0l.002-.045-.002-.044a5.174 5.174 0 0 0-5.166-4.94 5.166 5.166 0 0 0-3.573 1.434 5.165 5.165 0 0 0-1.592 3.506Z"/>
    <g clip-path="url(#c)">
      <path fill="#fff" d="m779.046 246.295-2.075-.83c-9.75 21.939-48.539 8.601-50.873 15.128-.389 4.408 21.182.838 36.604 1.585 4.702.228 7.06 3.778 5.064 9.564l3.933.012c4.537-14.144 19.017-6.925 19.622-11.593-.994-3.07-16.641 0-12.275-13.866Z"/>
      <path fill="#F4811F" d="M768.88 269.323c.622-2.074.415-4.149-.623-5.394-1.037-1.245-2.489-2.074-4.357-2.282l-36.099-.415c-.208 0-.415-.207-.622-.207-.208-.208-.208-.415 0-.623.207-.414.414-.622.829-.622l36.307-.415c4.357-.207 8.922-3.735 10.581-7.884l2.075-5.394c0-.208.208-.415 0-.623-2.282-10.58-11.826-18.464-23.029-18.464-10.374 0-19.295 6.639-22.407 15.975-2.074-1.452-4.564-2.282-7.469-2.074-4.979.414-8.921 4.563-9.543 9.543-.208 1.245 0 2.49.207 3.734-8.091.208-14.73 6.847-14.73 15.145 0 .83 0 1.453.207 2.282 0 .416.415.623.623.623h66.597c.415 0 .83-.207.83-.623l.623-2.282Z"/>
      <path fill="#FAAD3F" d="M780.291 246.087h-1.038c-.207 0-.415.207-.622.415l-1.452 4.979c-.623 2.074-.415 4.15.622 5.394 1.037 1.245 2.49 2.075 4.357 2.283l7.676.415c.207 0 .415.207.623.207.207.207.207.415 0 .622-.208.416-.415.623-.83.623l-7.884.415c-4.357.207-8.921 3.734-10.581 7.883l-.415 1.868c-.208.207 0 .622.415.622h27.386c.415 0 .622-.207.622-.622.415-1.66.83-3.527.83-5.395 0-10.788-8.921-19.709-19.709-19.709Z"/>
    </g>
    <g clip-path="url(#d)">
      <path fill="#2396ED" d="M697.936 241.538c-2.252-1.563-7.412-2.149-11.447-1.367-.469-3.907-2.627-7.324-6.38-10.351l-2.158-1.563-1.501 2.246c-1.876 2.93-2.815 7.031-2.533 10.938.093 1.366.562 3.808 1.97 5.956-1.313.782-4.035 1.758-7.6 1.758h-67.836l-.187.781c-.657 3.906-.657 16.113 7.037 25.487 5.817 7.129 14.449 10.742 25.801 10.742 24.583 0 42.785-11.816 51.323-33.202 3.378.098 10.602 0 14.262-7.324.094-.195.281-.586.938-2.05l.375-.782-2.064-1.269ZM654.682 214h-10.32v9.765h10.32V214Zm0 11.718h-10.32v9.766h10.32v-9.766Zm-12.197 0h-10.32v9.766h10.32v-9.766Zm-12.197 0h-10.321v9.766h10.321v-9.766Zm-12.198 11.719h-10.32v9.765h10.32v-9.766.001Zm12.198 0h-10.321v9.765h10.321v-9.765Zm12.197 0h-10.32v9.765h10.32v-9.765Zm12.198 0h-10.322v9.765h10.322v-9.765Zm12.197 0h-10.321v9.765h10.321v-9.765Z"/>
    </g>
    <path fill="#C12127" d="M461.538 282h25.641v-12.8h25.642V218h-51.283v64Zm25.642-51.2H500v25.599h-12.82V230.8Zm35.897-12.8v51.2h25.641v-38.4h12.82v38.4h12.821v-38.4h12.82v38.4H600V218h-76.923ZM400 269.2h25.641v-38.4h12.82v38.4h12.821V218H400v51.2Z"/>
    <path fill="#252F3E" d="M323.437 215.625c-2.9 0-5.682 1.152-7.733 3.204a10.933 10.933 0 0 0 0 15.467 10.933 10.933 0 0 0 7.733 3.204h53.125c2.901 0 5.683-1.152 7.734-3.204a10.934 10.934 0 0 0 0-15.467 10.934 10.934 0 0 0-7.734-3.204h-53.125Zm-7.812 31.25a3.125 3.125 0 1 0 0 6.25h68.75a3.125 3.125 0 1 0 0-6.25h-68.75Zm-3.125 18.75a3.125 3.125 0 0 1 3.125-3.125h68.75a3.125 3.125 0 1 1 0 6.25h-68.75a3.125 3.125 0 0 1-3.125-3.125Zm3.125 12.5a3.125 3.125 0 1 0 0 6.25h68.75a3.125 3.125 0 1 0 0-6.25h-68.75ZM212 221.002c0-8.286 16.791-15.002 37.502-15.002 20.711 0 37.502 6.716 37.502 15.002v7.498c0 8.286-16.791 15.002-37.502 15.002-20.711 0-37.502-6.716-37.502-15.002v-7.498Z"/>
    <path fill="#252F3E" d="M212 241.629v16.875c0 8.274 16.791 14.996 37.502 14.996 20.711 0 37.502-6.716 37.502-15.002v-16.869a36.63 36.63 0 0 1-8.202 4.444c-7.869 3.15-18.236 4.927-29.3 4.927-11.059 0-21.426-1.783-29.295-4.927a36.623 36.623 0 0 1-8.201-4.444H212Z"/>
    <path fill="#252F3E" d="M287.004 271.633a36.67 36.67 0 0 1-8.202 4.438c-7.875 3.15-18.236 4.927-29.306 4.927-11.058 0-21.425-1.777-29.295-4.927a36.623 36.623 0 0 1-8.201-4.444v9.371c0 8.286 16.791 15.002 37.502 15.002 20.711 0 37.502-6.716 37.502-15.002v-9.365Z"/>
    <path fill="#41B883" d="M80 207h20l-50 86-50-86h38.25L50 226.942 61.5 207H80Z"/>
    <path fill="#41B883" d="m0 207 50 86 50-86H80l-30 51.6L19.75 207H0Z"/>
    <path fill="#35495E" d="m19.388 207 30.227 52.214L79.592 207H61.106l-11.491 20.082L37.874 207H19.388Z"/>
    <path fill="#252F3E" d="m786.387 108.568-25.91 9.73 9.298 5.862c-16.611 20.918-40.64 33.803-60.943 38.707l5.752 10.477c22.812-7.436 46.965-20.848 62.521-44.543l7.084 4.465 2.198-24.698Zm1.353 20.514-.844 9.633-9.017-5.695c-.316.474-.65.931-.984 1.406v56.179h13.71v-61.523h-2.865Zm-26.472 22.5a111.807 111.807 0 0 1-6.873 5.484v33.539h13.71v-39.023h-6.837Zm-21.745 14.766a138.49 138.49 0 0 1-7.628 3.726v20.531h13.71v-24.257h-6.082Zm-30.128 7.734v16.523h13.71v-16.523h-.998a177.47 177.47 0 0 1-7.796 2.689l-1.241.387-1.687-3.076h-1.988ZM521.333 106a8.304 8.304 0 0 0-8.333 8.333V181a8.334 8.334 0 0 0 8.333 8.333H538v-7.958l8.708-8.708h-25.375v-8.334h33.709l8.333-8.333h-42.042v-8.333h50.375l7.959-7.959V131l-25-25h-33.334Zm29.167 6.25 22.917 22.917H550.5V112.25Zm29.792 39.583a2.301 2.301 0 0 0-1.667.667l-4.25 4.25 8.708 8.667 4.25-4.209c.875-.916.875-2.416 0-3.291l-5.416-5.417a2.258 2.258 0 0 0-1.625-.667Zm-8.375 7.375-25.584 25.625v8.667H555l25.625-25.625-8.708-8.667Z"/>
    <path fill="#54AFF4" fill-rule="evenodd" d="M179.717 25.238c1.716-.45 3.739-.357 5.449 1.113 1.525 1.312 2.193 3.063 2.075 4.918-.104 1.644-.81 3.175-1.555 4.43-1.226 2.065-3.134 4.28-4.781 6.194-.339.393-.666.773-.975 1.137-2.145 2.53-6.243 5.984-9.61 8.678a233.2 233.2 0 0 1-5.874 4.544l-.384.286-.086.064c-.564.457-1.133.913-1.708 1.365v.1c.012 3.179 1.151 4.992 2.499 5.765 1.876 1.075 5.463 1.789 9.928 1.858 4.354.068 9.089-.48 12.973-1.55l.392-.107c8.513-2.342 22.25-6.121 30.442-11.556A40.992 40.992 0 0 0 220 51.433l.005-.11a23.326 23.326 0 0 1 1.1-6.08c.047-.144.089-.264.122-.358l.007-.027.011-.048c.041-.172.102-.416.182-.719.161-.605.404-1.453.739-2.451.664-1.98 1.715-4.63 3.25-7.165 1.046-1.725 2.574-3.575 4.493-4.565 1.001-.516 2.213-.85 3.536-.67 1.348.183 2.533.862 3.506 1.877 1.375 1.433 1.754 3.215 1.715 4.744-.039 1.48-.464 2.897-.908 4.02a20.964 20.964 0 0 1-1.423 2.875 20.795 20.795 0 0 1-.705 1.115l-.051.073-.016.024-.006.008-.002.003-.001.002.009-.013-.05.068v.001l-.008.01-.016.022-.058.076-.21.271c-.181.232-.443.562-.781.972a66.748 66.748 0 0 1-2.879 3.262 64.879 64.879 0 0 1-5.883 5.534c.302 1.944 1.115 3.864 2.824 5.43 3.097 2.842 5.63 4.427 9.186 5.38 3.715.997 8.667 1.34 16.707 1.34 7.75 0 18.75-1.809 27.967-3.668a368.416 368.416 0 0 0 15.047-3.375c.405-.1.719-.18.93-.233l.239-.06.077-.02.673 2.776.672 2.777-.088.023-.251.064-.956.239a373.22 373.22 0 0 1-15.279 3.427c-9.228 1.862-20.693 3.775-29.031 3.775-8.046 0-13.634-.325-18.102-1.523-4.626-1.241-7.918-3.377-11.477-6.642a14.389 14.389 0 0 1-3.982-6.168c-8.979 5.692-22.894 9.516-30.995 11.742l-.741.204c-4.437 1.221-9.687 1.818-14.487 1.743-4.687-.074-9.421-.792-12.538-2.579-2.626-1.506-4.239-4.076-4.94-7.086-6.322 4.29-13.731 7.833-23.879 9.142l-.046.006-.047.004c-12.886 1.21-21.832-1.611-33.161-7.76l2.582-5.066c10.675 5.793 18.535 8.2 30.031 7.13 10.573-1.374 17.797-5.388 24.348-10.297.562-3.736 2.115-7.81 4.69-11.891a62.815 62.815 0 0 1 5.784-7.796c2.088-2.394 4.898-5.457 7.69-7.557 1.384-1.04 2.961-1.998 4.592-2.427Zm47.099 20.222a61.344 61.344 0 0 0 3.399-3.782 42.884 42.884 0 0 0 .857-1.073l.022-.03.006-.008.105-.157c.095-.145.233-.362.393-.633.326-.552.717-1.285 1.025-2.063.319-.805.484-1.496.497-2.005.012-.443-.087-.541-.109-.563l-.003-.002c-.157-.164-.253-.215-.287-.228-.024 0-.127.009-.332.115-.619.319-1.477 1.171-2.269 2.479-1.238 2.045-2.128 4.262-2.712 6.002a34.588 34.588 0 0 0-.592 1.948Zm5.89-10.547s.006 0 .015.003a.068.068 0 0 1-.015-.003Zm2.857 9.055-.05.068.021-.027.019-.027.01-.014Zm-70.832 4.944a210.07 210.07 0 0 0 2.19-1.728c3.429-2.745 7.097-5.875 8.835-7.924.382-.45.761-.892 1.132-1.324 1.64-1.91 3.125-3.64 4.068-5.228.572-.963.733-1.543.75-1.813a.086.086 0 0 1 .007-.03c.007-.022.008-.024-.098-.116-.021-.017-.022-.018-.035-.02h-.006c-.044-.008-.194-.02-.488.058-.635.166-1.542.639-2.694 1.505-2.28 1.715-4.754 4.376-6.835 6.76a57.197 57.197 0 0 0-5.258 7.09 32.626 32.626 0 0 0-1.568 2.77ZM50 194c24.3 0 44-19.699 44-44s-19.7-44-44-44-44 19.699-44 44 19.7 44 44 44Zm0 6c27.614 0 50-22.386 50-50s-22.386-50-50-50-50 22.386-50 50 22.386 50 50 50Zm100.338-100 12.449 29.234 37.213.685-30.084 16.057L189 190.797l-44.416-31.3-43.183 23.049 22.363-37.721L100 128.079l33.328.613L150.338 100Zm-19.964 33.676-14.054-.259 10.021 7.061 4.033-6.802Zm.097 9.713 5.695-9.607 23.265.429 4.042 9.494-18.524 9.887-14.478-10.203Zm-2.577 4.347L114.92 169.62l25.054-13.372-12.08-8.512Zm21.666 9.105 27.87 19.64-11.975-28.124-15.895 8.484Zm18.374-15.517 12.6-6.725-15.585-.287 2.985 7.012Zm-10.666-12.191-18.147-.334 10.479-17.676 7.668 18.01Z" clip-rule="evenodd"/>
    <path fill="#fff" fill-rule="evenodd" d="M93 1.5A4.5 4.5 0 0 1 97.5 6v24a4.5 4.5 0 1 1-9 0V6A4.5 4.5 0 0 1 93 1.5ZM64 63a4.5 4.5 0 0 1-6.364.034l-41.102-40.67a4.5 4.5 0 0 1 6.33-6.398l41.102 40.67A4.5 4.5 0 0 1 64 63ZM42 94.5a4.5 4.5 0 0 1-5.295 3.53L13.03 93.295a4.5 4.5 0 0 1 1.765-8.825l23.675 4.735A4.5 4.5 0 0 1 42 94.5Z" clip-rule="evenodd"/>
    <path fill="#252F3E" d="M438.221 39.183c0 1.597.176 2.892.484 3.841.351.95.79 1.985 1.405 3.108.22.345.308.69.308.992 0 .432-.264.863-.835 1.295l-2.767 1.813c-.396.259-.791.388-1.142.388-.44 0-.879-.216-1.318-.604a13.429 13.429 0 0 1-1.582-2.029 33.243 33.243 0 0 1-1.361-2.546c-3.427 3.97-7.732 5.956-12.915 5.956-3.69 0-6.634-1.036-8.786-3.108-2.153-2.071-3.251-4.833-3.251-8.286 0-3.669 1.318-6.647 3.998-8.89 2.679-2.245 6.237-3.367 10.762-3.367 1.494 0 3.031.13 4.657.345 1.625.216 3.294.561 5.051.95V25.89c0-3.28-.703-5.568-2.064-6.906-1.406-1.338-3.778-1.985-7.161-1.985a20.32 20.32 0 0 0-4.744.561 35.447 35.447 0 0 0-4.744 1.468c-.703.302-1.23.474-1.538.56-.307.087-.527.13-.703.13-.615 0-.922-.431-.922-1.338v-2.115c0-.69.088-1.208.307-1.51.22-.302.615-.604 1.23-.907 1.538-.776 3.383-1.424 5.535-1.942 2.153-.56 4.437-.82 6.853-.82 5.228 0 9.05 1.166 11.51 3.496 2.416 2.33 3.646 5.87 3.646 10.617v13.984h.087Zm-17.835 6.56c1.45 0 2.944-.259 4.525-.777 1.582-.518 2.987-1.467 4.173-2.762.703-.82 1.23-1.726 1.494-2.762.263-1.036.439-2.288.439-3.755v-1.813a37.295 37.295 0 0 0-4.041-.733 33.702 33.702 0 0 0-4.13-.26c-2.943 0-5.095.562-6.545 1.727-1.449 1.165-2.152 2.805-2.152 4.963 0 2.029.527 3.54 1.625 4.575 1.054 1.08 2.592 1.597 4.612 1.597Zm35.275 4.661c-.791 0-1.318-.13-1.669-.431-.352-.26-.659-.864-.923-1.684l-10.323-33.361c-.264-.864-.395-1.425-.395-1.727 0-.69.351-1.079 1.054-1.079h4.305c.835 0 1.406.13 1.713.432.352.259.615.863.879 1.683l7.38 28.571 6.853-28.571c.219-.863.483-1.424.834-1.683.352-.26.967-.432 1.757-.432h3.515c.834 0 1.405.13 1.757.432.351.259.659.863.834 1.683l6.941 28.917 7.6-28.917c.263-.863.571-1.424.878-1.683.352-.26.923-.432 1.713-.432h4.086c.703 0 1.098.345 1.098 1.08 0 .215-.044.43-.088.69a6.113 6.113 0 0 1-.307 1.079l-10.587 33.362c-.264.863-.571 1.424-.923 1.683-.351.259-.922.431-1.669.431h-3.778c-.834 0-1.405-.13-1.757-.431-.351-.302-.659-.863-.835-1.727l-6.808-27.837-6.765 27.794c-.22.863-.484 1.424-.835 1.727-.351.302-.966.431-1.757.431h-3.778Zm56.448 1.165c-2.284 0-4.569-.258-6.765-.776-2.196-.518-3.91-1.08-5.052-1.727-.703-.388-1.186-.82-1.362-1.208a3.012 3.012 0 0 1-.263-1.209v-2.2c0-.907.351-1.339 1.01-1.339.264 0 .527.044.791.13.264.086.659.259 1.098.431a24.214 24.214 0 0 0 4.832 1.511c1.757.345 3.471.518 5.228.518 2.767 0 4.92-.475 6.413-1.424 1.494-.95 2.285-2.33 2.285-4.1 0-1.209-.396-2.202-1.186-3.022-.791-.82-2.285-1.553-4.437-2.244l-6.37-1.942c-3.207-.993-5.579-2.46-7.028-4.402-1.45-1.9-2.197-4.014-2.197-6.258 0-1.813.396-3.41 1.186-4.791a11.162 11.162 0 0 1 3.163-3.539c1.318-.993 2.811-1.726 4.569-2.244 1.757-.518 3.602-.734 5.535-.734.966 0 1.976.043 2.943.173 1.01.13 1.933.302 2.855.474.879.216 1.713.432 2.504.69.791.26 1.406.519 1.845.778.615.345 1.054.69 1.318 1.079.263.345.395.82.395 1.424v2.028c0 .907-.351 1.382-1.01 1.382-.352 0-.923-.173-1.669-.518-2.504-1.123-5.316-1.684-8.435-1.684-2.504 0-4.48.389-5.842 1.209-1.362.82-2.065 2.072-2.065 3.841 0 1.208.44 2.244 1.318 3.064.879.82 2.504 1.64 4.832 2.374l6.238 1.942c3.163.993 5.447 2.374 6.809 4.144s2.021 3.798 2.021 6.042c0 1.856-.396 3.539-1.142 5.006-.791 1.468-1.845 2.763-3.207 3.798-1.362 1.08-2.987 1.856-4.876 2.417-1.977.604-4.042.907-6.282.907Z"/>
    <path fill="#F90" fill-rule="evenodd" d="M520.411 72.545C505.959 83.032 484.961 88.6 466.907 88.6c-25.303 0-48.102-9.193-65.322-24.471-1.362-1.209-.132-2.849 1.494-1.9 18.625 10.618 41.6 17.049 65.365 17.049 16.034 0 33.649-3.28 49.859-10.013 2.416-1.08 4.481 1.553 2.108 3.28Z" clip-rule="evenodd"/>
    <path fill="#F90" fill-rule="evenodd" d="M526.43 65.812c-1.845-2.33-12.213-1.122-16.913-.561-1.406.173-1.625-1.036-.351-1.942 8.258-5.697 21.832-4.057 23.414-2.158 1.581 1.942-.44 15.278-8.171 21.666-1.186.992-2.328.475-1.801-.82 1.757-4.273 5.667-13.897 3.822-16.185Z" clip-rule="evenodd"/>
    <path fill="#0089D6" d="M446.262 184.456c12.848-2.274 23.46-4.155 23.581-4.181l.222-.047-12.129-14.455c-6.672-7.95-12.13-14.485-12.13-14.523 0-.071 12.525-34.626 12.595-34.749.024-.041 8.547 14.702 20.662 35.738l20.779 36.084.158.277-38.548-.005-38.549-.005 23.359-4.134ZM400 180.048c0-.02 5.715-9.96 12.701-22.089l12.701-22.051 14.801-12.445c8.141-6.844 14.823-12.452 14.85-12.463.027-.01-.08.26-.238.6l-16.072 34.538-15.786 33.918-11.478.015c-6.314.007-11.479-.003-11.479-.023Z"/>
    <path fill="#5FB832" d="M388.372 171.403c-11.576 15.598-36.303 10.333-52.156 11.09 0 0-2.806.158-5.633.629 0 0 1.069-.461 2.432-.937 11.134-3.894 16.396-4.677 23.162-8.191 12.712-6.586 25.363-20.932 27.937-35.834-4.838 14.333-19.554 26.668-32.954 31.678-9.171 3.423-25.756 6.754-25.759 6.755.008.012-.661-.351-.67-.359-11.28-5.55-11.605-30.258 8.881-38.223 8.981-3.494 17.573-1.575 27.282-3.912 10.356-2.49 22.35-10.341 27.225-20.606 5.466 16.396 12.031 42.046.253 57.91Zm.201-62.99c-1.378 3.311-3.06 6.295-4.999 8.964-8.533-8.858-20.444-14.377-33.61-14.377C324.067 103 303 124.309 303 150.497c0 13.729 5.794 26.11 15.031 34.789l1.029.922a4.095 4.095 0 0 1-.59-5.706 3.985 3.985 0 0 1 5.643-.6c1.723 1.411 1.986 3.969.591 5.71a3.98 3.98 0 0 1-5.64.6l.7.627c8.171 6.958 18.704 11.161 30.2 11.161 24.754 0 45.081-19.483 46.821-44.075 1.288-12.041-2.228-27.33-8.212-45.512Z"/>
    <path fill="#F0DB4F" d="M876.562 0h-53.124C810.493 0 800 10.493 800 23.438v53.124C800 89.507 810.493 100 823.438 100h53.124C889.507 100 900 89.507 900 76.562V23.438C900 10.492 889.507 0 876.562 0Z"/>
    <path fill="#323330" d="m826.294 83.567 7.652-4.631c1.477 2.617 2.82 4.832 6.041 4.832 3.088 0 5.035-1.207 5.035-5.906V45.91h9.398v32.085c0 9.733-5.706 14.164-14.03 14.164-7.518 0-11.881-3.894-14.097-8.593m33.231-1.006 7.651-4.43c2.015 3.29 4.633 5.706 9.264 5.706 3.894 0 6.377-1.947 6.377-4.632 0-3.222-2.551-4.363-6.847-6.242l-2.349-1.008c-6.78-2.886-11.277-6.51-11.277-14.163 0-7.048 5.37-12.419 13.761-12.419 5.974 0 10.27 2.081 13.358 7.519l-7.317 4.698c-1.611-2.886-3.356-4.027-6.041-4.027-2.752 0-4.498 1.745-4.498 4.027 0 2.82 1.746 3.961 5.773 5.707l2.349 1.006c7.988 3.424 12.486 6.914 12.486 14.767 0 8.46-6.646 13.09-15.573 13.09-8.727 0-14.365-4.161-17.117-9.599Z"/>
    <mask id="e" width="100" height="100" x="600" y="0" maskUnits="userSpaceOnUse" style="mask-type:luminance">
      <path fill="#fff" d="M676.562 0h-53.124C610.493 0 600 10.493 600 23.438v53.124C600 89.507 610.493 100 623.438 100h53.124C689.507 100 700 89.507 700 76.562V23.438C700 10.492 689.507 0 676.562 0Z"/>
    </mask>
    <g mask="url(#e)">
      <path fill="#59B943" d="M676.562 0h-53.124C610.493 0 600 10.493 600 23.438v53.124C600 89.507 610.493 100 623.438 100h53.124C689.507 100 700 89.507 700 76.562V23.438C700 10.492 689.507 0 676.562 0Z"/>
      <path fill="#fff" fill-rule="evenodd" d="M691.319-2.344H700v104.297h-.807a.777.777 0 0 0 .294-.057.778.778 0 0 0 .416-.416.76.76 0 0 0 .059-.294V13.178a.711.711 0 0 0-.446-.905.717.717 0 0 0-.907.445l-32.296 36.166a.987.987 0 0 1-1.445 0l-16.486-16.963a.978.978 0 0 1 0-1.227l5.443-6.963a.992.992 0 0 1 .8-.41.985.985 0 0 1 .8.41l9.227 10.184a.99.99 0 0 0 1.169.258.98.98 0 0 0 .338-.258L691.873-1.24a.712.712 0 0 0 .049-.715.71.71 0 0 0-.603-.39Zm-90.55 0H600v.767a.767.767 0 0 1 .769-.767ZM600 101.186v.767h.769a.775.775 0 0 1-.71-.473.76.76 0 0 1-.059-.294Zm66.003-37.499a7.635 7.635 0 0 0-5.214 1.845 7.545 7.545 0 0 0-2.578 4.867.248.248 0 0 0 .046.213.25.25 0 0 0 .198.091h15.127a.253.253 0 0 0 .184-.082.226.226 0 0 0 .051-.089.222.222 0 0 0 .009-.102 7.303 7.303 0 0 0-2.518-4.969 7.392 7.392 0 0 0-5.305-1.773Zm-55.792 20.69a24.896 24.896 0 0 0 17.655 6.134h-.031c11.658 0 17.286-5.95 17.286-13.743 0-9.772-9.093-11.949-16.266-13.666-4.669-1.118-8.524-2.041-8.524-4.739 0-2.577 2.214-4.325 6.151-4.325a18.734 18.734 0 0 1 11.811 4.05.95.95 0 0 0 1.093.102.946.946 0 0 0 .291-.256l3.783-5.246a.949.949 0 0 0 0-1.319 24.278 24.278 0 0 0-16.148-5.399c-10.211 0-16.362 5.952-16.362 13.099 0 9.61 8.749 11.682 15.865 13.367 4.877 1.155 8.987 2.128 8.987 5.222 0 2.454-2.461 4.785-7.505 4.785a18.94 18.94 0 0 1-12.918-5.03.956.956 0 0 0-1.323.337l-3.845 5.368a.951.951 0 0 0 0 1.258Zm71.793-8.471a.829.829 0 0 0 .057-.334l-.031-.981c0-10.46-6.49-17.608-16.055-17.608a16.348 16.348 0 0 0-11.896 4.832 16.288 16.288 0 0 0-3.581 5.477 16.244 16.244 0 0 0-1.132 6.44 16.162 16.162 0 0 0 4.838 12.184 16.271 16.271 0 0 0 12.294 4.626 20.552 20.552 0 0 0 12.61-3.927.856.856 0 0 0 .185-1.134l-2.768-4.02a.834.834 0 0 0-1.231-.183 14.235 14.235 0 0 1-7.874 2.577 8.664 8.664 0 0 1-5.999-1.772 8.618 8.618 0 0 1-3.228-5.345.283.283 0 0 1 .059-.205.278.278 0 0 1 .187-.102H681.2a.835.835 0 0 0 .804-.525Z" clip-rule="evenodd"/>
    </g>
    <rect width="99" height="98" x="700.5" y="1.5" fill="#fff" rx="22.5"/>
    <path fill="#404142" d="m762.07 60.696-3.448 3.558h13.794l13.793 12.453h-72.415l13.793-12.453h10.346l-3.453-3.558h-10.341L700 82.045h100l-24.137-21.349H762.07Z"/>
    <path fill="#37B5E5" d="M792.744 26.625 784.165 18 748.14 54.233 734.418 40.43l-8.576 8.627 22.301 22.43 44.601-44.859v-.002Z"/>
    <rect width="99" height="98" x="700.5" y="1.5" stroke="#37B5E5" rx="22.5"/>
    <path fill="#000" d="M395.705 59.887c-.552-1.673-1.998-2.838-3.868-3.118-.882-.131-1.891-.075-3.086.171-2.083.43-3.629.594-4.756.626 4.256-7.192 7.718-15.393 9.71-23.113 3.222-12.483 1.501-18.17-.511-20.741-5.325-6.809-13.094-10.466-22.466-10.578-5-.061-9.389.926-11.679 1.637-2.132-.377-4.424-.587-6.829-.626-4.509-.072-8.492.912-11.896 2.933a54.21 54.21 0 0 0-8.401-2.11c-8.215-1.35-14.835-.298-19.678 3.125-5.864 4.145-8.582 11.346-8.079 21.404.159 3.193 1.945 12.91 4.755 22.124 1.616 5.296 3.338 9.694 5.12 13.073 2.527 4.791 5.231 7.613 8.267 8.626 1.701.567 4.792.965 8.044-1.745.412.5.962.996 1.691 1.457.927.584 2.06 1.062 3.192 1.345 4.078 1.02 7.899.765 11.158-.665.02.58.035 1.135.048 1.613.022.776.043 1.537.072 2.25.193 4.812.52 8.554 1.49 11.172.053.144.125.364.2.597.484 1.481 1.292 3.962 3.35 5.905 2.131 2.013 4.708 2.63 7.069 2.63 1.184 0 2.313-.156 3.304-.368 3.531-.757 7.542-1.911 10.444-6.045 2.743-3.908 4.076-9.794 4.318-19.069l.087-.75.058-.491.646.057.167.011c3.596.164 7.995-.6 10.696-1.855 2.134-.99 8.974-4.604 7.363-9.482Z"/>
    <path fill="#336791" d="M389.555 60.836c-10.695 2.207-11.43-1.416-11.43-1.416 11.291-16.767 16.012-38.049 11.939-43.258-11.114-14.208-30.352-7.489-30.673-7.314l-.103.018c-2.113-.439-4.477-.7-7.135-.744-4.839-.079-8.51 1.27-11.296 3.384 0 0-34.318-14.147-32.722 17.792.34 6.795 9.733 51.413 20.936 37.936a206.798 206.798 0 0 1 8.052-9.095c1.965 1.306 4.318 1.973 6.784 1.734l.192-.163c-.06.612-.033 1.21.076 1.919-2.886 3.226-2.038 3.793-7.807 4.981-5.839 1.204-2.409 3.348-.17 3.908 2.715.68 8.995 1.642 13.239-4.303l-.169.679c1.13.906 1.924 5.895 1.791 10.418s-.221 7.628.669 10.053c.892 2.425 1.78 7.883 9.365 6.256 6.337-1.359 9.622-4.88 10.079-10.755.324-4.177 1.058-3.56 1.104-7.294l.588-1.767c.679-5.662.108-7.488 4.013-6.639l.949.084c2.873.13 6.635-.463 8.843-1.49 4.753-2.207 7.572-5.893 2.885-4.924h.001Z"/>
    <path fill="#fff" d="M342.866 32.337c-.964-.135-1.837-.01-2.278.324a.838.838 0 0 0-.346.557c-.056.397.223.837.394 1.064.484.642 1.191 1.083 1.891 1.18.101.014.202.02.303.02 1.167 0 2.228-.908 2.321-1.58.117-.84-1.102-1.4-2.285-1.565Zm31.928.026c-.092-.659-1.264-.846-2.376-.692-1.11.155-2.187.657-2.097 1.317.072.514.999 1.39 2.096 1.39.092 0 .186-.006.28-.02.732-.1 1.27-.566 1.525-.834.388-.409.613-.865.572-1.16Z"/>
    <path fill="#fff" d="M393.114 60.585c-.408-1.234-1.721-1.631-3.901-1.18-6.475 1.337-8.794.41-9.555-.15 5.032-7.673 9.173-16.947 11.406-25.6 1.058-4.098 1.643-7.904 1.69-11.007.053-3.405-.526-5.907-1.722-7.436-4.819-6.163-11.893-9.468-20.455-9.559-5.887-.066-10.861 1.441-11.825 1.865a29.45 29.45 0 0 0-6.653-.855c-4.419-.071-8.239.987-11.402 3.145a50.835 50.835 0 0 0-9.265-2.43c-7.506-1.21-13.471-.294-17.727 2.724-5.079 3.6-7.424 10.037-6.969 19.13.152 3.058 1.894 12.469 4.643 21.481 3.619 11.862 7.552 18.578 11.691 19.959a5.23 5.23 0 0 0 1.659.275c1.509 0 3.36-.681 5.286-2.998 2.349-2.82 4.779-5.57 7.286-8.25a11.734 11.734 0 0 0 5.242 1.41l.013.144c-.315.376-.623.756-.924 1.142-1.267 1.61-1.53 1.944-5.607 2.784-1.16.24-4.24.875-4.286 3.036-.049 2.36 3.642 3.352 4.062 3.457 1.465.367 2.876.548 4.223.548 3.273 0 6.154-1.077 8.456-3.16-.071 8.415.28 16.708 1.29 19.234.827 2.069 2.847 7.123 9.229 7.123.936 0 1.967-.109 3.101-.352 6.66-1.429 9.553-4.375 10.672-10.869.598-3.47 1.626-11.758 2.109-16.204 1.02.319 2.333.465 3.752.464 2.961 0 6.377-.63 8.519-1.624 2.407-1.119 6.749-3.863 5.962-6.247Zm-15.862-30.04c-.021 1.312-.202 2.503-.393 3.747-.206 1.338-.419 2.72-.473 4.4-.053 1.633.151 3.331.348 4.974.399 3.318.808 6.734-.775 10.104a13.1 13.1 0 0 1-.701-1.443c-.197-.477-.624-1.243-1.216-2.304-2.301-4.13-7.69-13.8-4.931-17.746.821-1.175 2.907-2.383 8.141-1.732ZM370.907 8.31c7.672.17 13.741 3.041 18.038 8.535 3.296 4.214-.333 23.39-10.839 39.932l-.318-.402-.133-.166c2.714-4.486 2.183-8.925 1.711-12.86-.194-1.615-.378-3.14-.331-4.574.048-1.518.249-2.82.443-4.08.239-1.552.481-3.158.414-5.051.05-.199.071-.434.044-.712-.171-1.816-2.242-7.249-6.464-12.167-2.309-2.69-5.677-5.7-10.276-7.73 1.978-.41 4.683-.793 7.711-.725Zm-42.93 57.943c-2.122 2.552-3.587 2.063-4.069 1.902-3.139-1.047-6.782-7.688-9.994-18.217-2.779-9.11-4.403-18.272-4.532-20.84-.405-8.125 1.563-13.787 5.851-16.83 6.978-4.952 18.45-1.988 23.06-.485-.066.065-.135.127-.201.193-7.565 7.645-7.385 20.706-7.366 21.504-.001.308.025.744.06 1.344.13 2.197.373 6.286-.275 10.916-.601 4.303.725 8.514 3.636 11.554.299.312.613.608.942.889a194.215 194.215 0 0 0-7.112 8.07Zm8.084-10.794c-2.347-2.45-3.413-5.858-2.925-9.352.683-4.891.431-9.15.296-11.44-.019-.32-.036-.6-.046-.822 1.105-.98 6.226-3.726 9.879-2.889 1.666.382 2.682 1.518 3.104 3.471 2.185 10.113.289 14.328-1.234 17.715-.314.698-.611 1.357-.864 2.04l-.196.527c-.497 1.334-.96 2.574-1.246 3.751-2.495-.007-4.923-1.073-6.768-3Zm.383 13.639c-.729-.182-1.384-.499-1.768-.76.321-.152.892-.358 1.883-.562 4.797-.988 5.537-1.686 7.155-3.74.371-.472.791-1.006 1.373-1.657h.001c.867-.972 1.264-.807 1.983-.508.583.24 1.151.972 1.381 1.776.109.38.231 1.102-.169 1.663-3.379 4.734-8.303 4.673-11.839 3.788Zm25.101 23.373c-5.868 1.258-7.945-1.738-9.314-5.163-.884-2.21-1.318-12.18-1.01-23.19a1.334 1.334 0 0 0-.057-.422 5.58 5.58 0 0 0-.164-.778c-.458-1.602-1.575-2.942-2.915-3.498-.532-.22-1.509-.625-2.682-.325.25-1.032.684-2.197 1.155-3.46l.197-.53c.222-.598.501-1.218.796-1.875 1.595-3.544 3.778-8.398 1.408-19.363-.887-4.108-3.851-6.113-8.344-5.647-2.694.279-5.158 1.366-6.387 1.99a20.36 20.36 0 0 0-.732.389c.343-4.138 1.639-11.872 6.487-16.765 3.053-3.08 7.118-4.602 12.072-4.52 9.76.16 16.019 5.172 19.551 9.348 3.044 3.6 4.692 7.225 5.349 9.18-4.946-.503-8.31.474-10.016 2.914-3.71 5.307 2.03 15.607 4.789 20.557.506.907.942 1.692 1.08 2.025.898 2.178 2.061 3.633 2.91 4.694.26.326.513.641.705.917-1.498.432-4.189 1.43-3.944 6.422-.198 2.505-1.604 14.23-2.319 18.374-.943 5.473-2.956 7.511-8.615 8.726Zm24.491-28.045c-1.532.71-4.096 1.245-6.531 1.36-2.69.125-4.059-.302-4.381-.565-.151-3.11 1.005-3.436 2.23-3.78.192-.054.38-.107.561-.17.113.092.236.183.371.272 2.162 1.428 6.019 1.582 11.463.458l.059-.012c-.734.687-1.99 1.608-3.772 2.437Z"/>
    <path fill="#252F3E" d="M650 112.513a12.498 12.498 0 0 0-8.83 3.657 12.492 12.492 0 0 0-2.707 13.609A12.492 12.492 0 0 0 650 137.488a12.487 12.487 0 0 0 0-24.975Zm28.125 6.237a9.376 9.376 0 1 0 .001 18.752 9.376 9.376 0 0 0-.001-18.752Zm-56.25 0a9.376 9.376 0 1 0 .001 18.752 9.376 9.376 0 0 0-.001-18.752Zm9.375 31.206a6.252 6.252 0 0 1 6.25-6.206h25c1.658 0 3.247.658 4.419 1.831A6.245 6.245 0 0 1 668.75 150v18.75a18.87 18.87 0 0 1-.912 5.794 18.754 18.754 0 0 1-20.765 12.708 18.757 18.757 0 0 1-15.823-18.502v-18.794ZM625 150c0-2.281.606-4.412 1.675-6.25H612.5a6.245 6.245 0 0 0-4.419 1.831A6.245 6.245 0 0 0 606.25 150v15.625a15.617 15.617 0 0 0 13.988 15.544 15.622 15.622 0 0 0 7.487-1.05A24.895 24.895 0 0 1 625 168.744V150Zm50 0v18.75c0 4.094-.981 7.956-2.725 11.369a15.622 15.622 0 0 0 19.648-7.158 15.613 15.613 0 0 0 1.827-7.336V150a6.245 6.245 0 0 0-1.831-4.419 6.245 6.245 0 0 0-4.419-1.831h-14.175A12.437 12.437 0 0 1 675 150Zm208.333-33.333a8.334 8.334 0 0 1 8.334 8.333v41.667a8.305 8.305 0 0 1-8.334 8.333H900v8.333H800V175h16.667a8.334 8.334 0 0 1-8.334-8.333V125a8.305 8.305 0 0 1 8.334-8.333h66.666Zm0 8.333h-66.666v41.667h66.666V125ZM850 150c9.208 0 16.667 3.75 16.667 8.333v4.167h-33.334v-4.167c0-4.583 7.459-8.333 16.667-8.333Zm0-20.833c2.21 0 4.33.878 5.893 2.44a8.338 8.338 0 0 1 0 11.786 8.338 8.338 0 0 1-5.893 2.44 8.304 8.304 0 0 1-8.333-8.333c0-4.625 3.75-8.333 8.333-8.333ZM100 274v-46.366h32.057v10.142h-19.679v7.97h17.72v10.142h-17.72V274H100Zm33.004 0v-9.056l17.008-14.308a39.015 39.015 0 0 0 2.895-2.672c.816-.845 1.439-1.713 1.87-2.603.445-.891.667-1.879.667-2.966 0-1.192-.252-2.211-.757-3.056a4.924 4.924 0 0 0-2.048-1.947c-.875-.468-1.884-.702-3.027-.702-1.143 0-2.152.234-3.028.702-.861.467-1.528 1.154-2.003 2.06-.475.905-.713 2.007-.713 3.305h-11.754c0-3.26.72-6.067 2.159-8.422 1.44-2.354 3.473-4.165 6.1-5.433C143 227.634 146.08 227 149.612 227c3.651 0 6.812.596 9.483 1.789 2.687 1.177 4.757 2.837 6.211 4.98 1.47 2.143 2.204 4.656 2.204 7.539 0 1.781-.363 3.555-1.091 5.321-.727 1.75-2.033 3.69-3.918 5.818-1.884 2.128-4.563 4.664-8.036 7.607l-4.274 3.622v.272H168V274h-34.996ZM200 274v-46.366h-32.057v10.142h19.679v7.97h-17.72v10.142h17.72V274H200Z"/>
    <mask id="f" width="95" height="95" x="603" y="302" maskUnits="userSpaceOnUse" style="mask-type:alpha">
      <path fill="#fff" fill-rule="evenodd" d="M670.366 396.105a5.913 5.913 0 0 0 4.713-.181l19.559-9.412a5.939 5.939 0 0 0 3.362-5.35v-63.816a5.938 5.938 0 0 0-3.362-5.351l-19.559-9.41a5.91 5.91 0 0 0-6.749 1.149l-37.443 34.16-16.309-12.381a3.954 3.954 0 0 0-5.052.224l-5.231 4.759a3.956 3.956 0 0 0-.959 4.526c.223.504.548.957.955 1.328l14.144 12.904-14.143 12.904a3.954 3.954 0 0 0-1.29 2.928 3.95 3.95 0 0 0 1.294 2.926l5.231 4.758a3.957 3.957 0 0 0 5.052.225l16.309-12.38 37.443 34.159a5.916 5.916 0 0 0 2.035 1.331Zm3.898-68.417-28.41 21.566 28.411 21.566-.001-43.132Z" clip-rule="evenodd"/>
    </mask>
    <g mask="url(#f)">
      <path fill="#0065A9" d="m694.639 312.011-19.575-9.426a5.917 5.917 0 0 0-6.751 1.149l-64.079 58.424a3.96 3.96 0 0 0 .004 5.854l5.234 4.758a3.962 3.962 0 0 0 5.055.225l77.166-58.54c2.589-1.964 6.307-.118 6.307 3.132v-.227a5.933 5.933 0 0 0-3.361-5.349Z"/>
      <g filter="url(#g)">
        <path fill="#007ACC" d="m694.639 386.497-19.575 9.424a5.915 5.915 0 0 1-6.751-1.147l-64.079-58.425a3.96 3.96 0 0 1 .004-5.853l5.234-4.759a3.962 3.962 0 0 1 5.055-.225l77.166 58.54c2.589 1.964 6.307.118 6.307-3.132v.227a5.933 5.933 0 0 1-3.361 5.35Z"/>
      </g>
      <g filter="url(#h)">
        <path fill="#1F9CF0" d="M675.065 395.924a5.925 5.925 0 0 1-6.752-1.15c2.191 2.191 5.937.639 5.937-2.46v-86.122c0-3.099-3.746-4.651-5.937-2.459a5.925 5.925 0 0 1 6.752-1.15l19.571 9.413a5.934 5.934 0 0 1 3.364 5.351v63.815a5.94 5.94 0 0 1-3.364 5.351l-19.571 9.411Z"/>
      </g>
      <path fill="url(#i)" fill-rule="evenodd" d="M670.309 396.105a5.927 5.927 0 0 0 4.712-.181l19.559-9.412a5.939 5.939 0 0 0 3.362-5.351v-63.815a5.938 5.938 0 0 0-3.362-5.351l-19.559-9.41a5.91 5.91 0 0 0-6.748 1.149l-37.444 34.16-16.308-12.38a3.953 3.953 0 0 0-5.053.224l-5.23 4.758a3.959 3.959 0 0 0-.005 5.855l14.144 12.903-14.143 12.903a3.952 3.952 0 0 0-.952 4.528c.223.504.549.956.956 1.327l5.231 4.758a3.958 3.958 0 0 0 5.052.225l16.31-12.381 37.443 34.16a5.916 5.916 0 0 0 2.035 1.331Zm3.898-68.418-28.411 21.567 28.411 21.565v-43.132Z" clip-rule="evenodd" opacity=".25"/>
    </g>
  </g>
  <defs>
    <clipPath id="a">
      <path fill="#fff" d="M0 0h900v400H0z"/>
    </clipPath>
    <clipPath id="b">
      <path fill="#fff" d="M0 0h100v100H0z" transform="rotate(90 300 600)"/>
    </clipPath>
    <clipPath id="c">
      <path fill="#fff" d="M0 0h100v100H0z" transform="translate(700 200)"/>
    </clipPath>
    <clipPath id="d">
      <path fill="#fff" d="M0 0h100v100H0z" transform="translate(600 200)"/>
    </clipPath>
    <filter id="g" width="111.725" height="88.468" x="594.609" y="316.374" color-interpolation-filters="sRGB" filterUnits="userSpaceOnUse">
      <feFlood flood-opacity="0" result="BackgroundImageFix"/>
      <feColorMatrix in="SourceAlpha" result="hardAlpha" values="0 0 0 0 0 0 0 0 0 0 0 0 0 0 0 0 0 0 127 0"/>
      <feOffset/>
      <feGaussianBlur stdDeviation="4.167"/>
      <feColorMatrix values="0 0 0 0 0 0 0 0 0 0 0 0 0 0 0 0 0 0 0.25 0"/>
      <feBlend in2="BackgroundImageFix" mode="overlay" result="effect1_dropShadow_601_2"/>
      <feBlend in="SourceGraphic" in2="effect1_dropShadow_601_2" result="shape"/>
    </filter>
    <filter id="h" width="46.355" height="111.178" x="659.979" y="293.665" color-interpolation-filters="sRGB" filterUnits="userSpaceOnUse">
      <feFlood flood-opacity="0" result="BackgroundImageFix"/>
      <feColorMatrix in="SourceAlpha" result="hardAlpha" values="0 0 0 0 0 0 0 0 0 0 0 0 0 0 0 0 0 0 127 0"/>
      <feOffset/>
      <feGaussianBlur stdDeviation="4.167"/>
      <feColorMatrix values="0 0 0 0 0 0 0 0 0 0 0 0 0 0 0 0 0 0 0.25 0"/>
      <feBlend in2="BackgroundImageFix" mode="overlay" result="effect1_dropShadow_601_2"/>
      <feBlend in="SourceGraphic" in2="effect1_dropShadow_601_2" result="shape"/>
    </filter>
    <linearGradient id="i" x1="650.442" x2="650.442" y1="301.999" y2="396.509" gradientUnits="userSpaceOnUse">
      <stop stop-color="#fff"/>
      <stop offset="1" stop-color="#fff" stop-opacity="0"/>
    </linearGradient>
  </defs>
</svg>
