<svg xmlns="http://www.w3.org/2000/svg" width="900" height="400" fill="none" viewBox="0 0 900 400">
  <g clip-path="url(#a)">
    <path fill="#019639" d="M749.837 306.25h.204a32.612 32.612 0 0 1 3.037 1.65l33.931 19.519a2.472 2.472 0 0 1 1.294 2.462c-.025 13.716 0 27.428-.016 41.138a2.539 2.539 0 0 1-1.112 1.584 72838.544 72838.544 0 0 1-36.084 20.763 1.832 1.832 0 0 1-2.054.115 17699.304 17699.304 0 0 1-36.09-20.75 2.18 2.18 0 0 1-.94-.851 2.178 2.178 0 0 1-.31-1.23v-41.134a2.166 2.166 0 0 1 1.209-2.094 73485.803 73485.803 0 0 0 33.888-19.5c1.006-.575 1.993-1.184 3.043-1.672Z"/>
    <path fill="#fff" d="M727.397 332.931v33.935a4.704 4.704 0 0 0 1.334 3.396 5.145 5.145 0 0 0 6.438.644 4.89 4.89 0 0 0 2.14-4.04c0-8.188-.015-16.375 0-24.563 7.465 8.938 14.945 17.863 22.441 26.775a8.85 8.85 0 0 0 8.125 2.444 4.879 4.879 0 0 0 3.909-4.285c.017-11.543.017-23.086 0-34.628a4.94 4.94 0 0 0-4.925-4.513 4.943 4.943 0 0 0-4.925 4.513c0 8.319-.05 16.628 0 24.944-7.331-8.644-14.571-17.362-21.875-26.037a8.795 8.795 0 0 0-8.278-3.288 4.936 4.936 0 0 0-4.384 4.703Z"/>
    <g clip-path="url(#b)">
      <path fill="#FAAD3F" stroke="#fff" stroke-width="2" d="M884.333 312.499a5.17 5.17 0 1 1-5.166-5.166m5.166 5.166a5.171 5.171 0 0 0-5.166-5.166m5.166 5.166v.001h-1l1-.001Zm-5.166-5.166v1l.001-1h-.001Zm-11.73 2h.706l.236-.664c1.591-4.46 5.807-7.669 10.788-7.669 6.339 0 11.5 5.161 11.5 11.5s-5.16 11.499-11.499 11.5a11.485 11.485 0 0 1-10.792-7.666l-.235-.667h-36.282l-.235.667A11.486 11.486 0 0 1 820.832 324c-6.339-.001-11.499-5.161-11.499-11.5s5.16-11.499 11.499-11.5a11.492 11.492 0 0 1 10.792 7.666l.235.667h35.578Zm-51.769 3.122-.002.045.002.045a5.17 5.17 0 0 0 10.331 0l.002-.045-.002-.045a5.174 5.174 0 0 0-5.166-4.939 5.17 5.17 0 0 0-5.165 4.939Z"/>
    </g>
    <path fill="#FAAD3F" stroke="#fff" stroke-width="2" d="M884.333 270.833a5.167 5.167 0 0 1-3.189 4.781 5.167 5.167 0 0 1-5.638-1.12 5.172 5.172 0 0 1 3.662-8.827m5.165 5.166a5.17 5.17 0 0 0-5.165-5.166m5.165 5.166h-1l1-.001v.001Zm-5.165-5.166-.001 1v-1h.001Zm5.165-36.501a5.167 5.167 0 0 1-3.189 4.781 5.175 5.175 0 0 1-5.638-1.12 5.168 5.168 0 0 1-1.12-5.637 5.175 5.175 0 0 1 4.781-3.19m5.166 5.166a5.17 5.17 0 0 0-5.166-5.166m5.166 5.166v.001h-1l1-.001ZM879.167 224v1l.001-1h-.001Zm-46.6 8.333h-.708l-.235.668a11.486 11.486 0 0 1-10.792 7.666c-6.339-.001-11.499-5.162-11.499-11.5 0-6.339 5.16-11.499 11.499-11.5a11.484 11.484 0 0 1 10.792 7.666l.235.667h3.558c4.562 0 8.744 1.939 11.906 5.145a30.171 30.171 0 0 0-3.544 5.525c-2.055-2.625-5.01-4.337-8.362-4.337h-2.85Zm-16.899-3.211-.002.045.002.044a5.165 5.165 0 0 0 1.592 3.506 5.166 5.166 0 0 0 7.147 0 5.174 5.174 0 0 0 1.592-3.506l.002-.044-.002-.045a5.174 5.174 0 0 0-5.166-4.94 5.17 5.17 0 0 0-5.165 4.94Zm51.769 38.545h.706l.236-.664c1.591-4.461 5.807-7.67 10.788-7.67 6.339 0 11.5 5.161 11.5 11.5s-5.16 11.5-11.499 11.5a11.482 11.482 0 0 1-10.792-7.666l-.235-.667h-2.17c-5.053 0-9.647-2.056-13.075-5.405a30.248 30.248 0 0 0 3.453-5.544c2.338 2.816 5.773 4.616 9.626 4.616h1.462Zm-34.926 6.072-.615.086-.195.59c-1.522 4.591-5.796 7.918-10.868 7.918-6.339 0-11.5-5.16-11.5-11.5 0-6.339 5.16-11.499 11.499-11.5a11.503 11.503 0 0 1 10.698 7.36l.303.788.828-.168a17.681 17.681 0 0 0 14.172-17.312V250c0-12.092 9.003-22.099 20.656-23.739l.615-.086.195-.59c1.522-4.591 5.796-7.918 10.868-7.918 6.339 0 11.5 5.16 11.5 11.5 0 6.338-5.16 11.499-11.499 11.5a11.498 11.498 0 0 1-6.486-2.026 11.497 11.497 0 0 1-4.212-5.334l-.304-.788-.827.168a17.681 17.681 0 0 0-14.172 17.312V250c0 12.092-9.003 22.099-20.656 23.739Zm-16.843-2.95-.002.044.002.045a5.17 5.17 0 0 0 10.331 0l.002-.045-.002-.044a5.174 5.174 0 0 0-5.166-4.94 5.166 5.166 0 0 0-3.573 1.434 5.165 5.165 0 0 0-1.592 3.506Z"/>
    <g clip-path="url(#c)">
      <path fill="#fff" d="m779.046 246.295-2.075-.83c-9.75 21.939-48.539 8.601-50.873 15.128-.389 4.408 21.182.838 36.604 1.585 4.702.228 7.06 3.778 5.064 9.564l3.933.012c4.537-14.144 19.017-6.925 19.622-11.593-.994-3.07-16.641 0-12.275-13.866Z"/>
      <path fill="#F4811F" d="M768.88 269.323c.622-2.074.415-4.149-.623-5.394-1.037-1.245-2.489-2.074-4.357-2.282l-36.099-.415c-.208 0-.415-.207-.622-.207-.208-.208-.208-.415 0-.623.207-.414.414-.622.829-.622l36.307-.415c4.357-.207 8.922-3.735 10.581-7.884l2.075-5.394c0-.208.208-.415 0-.623-2.282-10.58-11.826-18.464-23.029-18.464-10.374 0-19.295 6.639-22.407 15.975-2.074-1.452-4.564-2.282-7.469-2.074-4.979.414-8.921 4.563-9.543 9.543-.208 1.245 0 2.49.207 3.734-8.091.208-14.73 6.847-14.73 15.145 0 .83 0 1.453.207 2.282 0 .416.415.623.623.623h66.597c.415 0 .83-.207.83-.623l.623-2.282Z"/>
      <path fill="#FAAD3F" d="M780.291 246.087h-1.038c-.207 0-.415.207-.622.415l-1.452 4.979c-.623 2.074-.415 4.15.622 5.394 1.037 1.245 2.49 2.075 4.357 2.283l7.676.415c.207 0 .415.207.623.207.207.207.207.415 0 .622-.208.416-.415.623-.83.623l-7.884.415c-4.357.207-8.921 3.734-10.581 7.883l-.415 1.868c-.208.207 0 .622.415.622h27.386c.415 0 .622-.207.622-.622.415-1.66.83-3.527.83-5.395 0-10.788-8.921-19.709-19.709-19.709Z"/>
    </g>
    <g clip-path="url(#d)">
      <path fill="#2396ED" d="M697.936 241.538c-2.252-1.563-7.412-2.149-11.447-1.367-.469-3.907-2.627-7.324-6.38-10.351l-2.158-1.563-1.501 2.246c-1.876 2.93-2.815 7.031-2.533 10.938.093 1.366.562 3.808 1.97 5.956-1.313.782-4.035 1.758-7.6 1.758h-67.836l-.187.781c-.657 3.906-.657 16.113 7.037 25.487 5.817 7.129 14.449 10.742 25.801 10.742 24.583 0 42.785-11.816 51.323-33.202 3.378.098 10.602 0 14.262-7.324.094-.195.281-.586.938-2.05l.375-.782-2.064-1.269ZM654.682 214h-10.32v9.765h10.32V214Zm0 11.718h-10.32v9.766h10.32v-9.766Zm-12.197 0h-10.32v9.766h10.32v-9.766Zm-12.197 0h-10.321v9.766h10.321v-9.766Zm-12.198 11.719h-10.32v9.765h10.32v-9.766.001Zm12.198 0h-10.321v9.765h10.321v-9.765Zm12.197 0h-10.32v9.765h10.32v-9.765Zm12.198 0h-10.322v9.765h10.322v-9.765Zm12.197 0h-10.321v9.765h10.321v-9.765Z"/>
    </g>
    <path fill="#C12127" d="M461.538 282h25.641v-12.8h25.642V218h-51.283v64Zm25.642-51.2H500v25.599h-12.82V230.8Zm35.897-12.8v51.2h25.641v-38.4h12.82v38.4h12.821v-38.4h12.82v38.4H600V218h-76.923ZM400 269.2h25.641v-38.4h12.82v38.4h12.821V218H400v51.2Z"/>
    <path fill="#252F3E" d="M323.437 215.625c-2.9 0-5.682 1.152-7.733 3.204a10.933 10.933 0 0 0 0 15.467 10.933 10.933 0 0 0 7.733 3.204h53.125c2.901 0 5.683-1.152 7.734-3.204a10.934 10.934 0 0 0 0-15.467 10.934 10.934 0 0 0-7.734-3.204h-53.125Zm-7.812 31.25a3.125 3.125 0 1 0 0 6.25h68.75a3.125 3.125 0 1 0 0-6.25h-68.75Zm-3.125 18.75a3.125 3.125 0 0 1 3.125-3.125h68.75a3.125 3.125 0 1 1 0 6.25h-68.75a3.125 3.125 0 0 1-3.125-3.125Zm3.125 12.5a3.125 3.125 0 1 0 0 6.25h68.75a3.125 3.125 0 1 0 0-6.25h-68.75ZM212 221.002c0-8.286 16.791-15.002 37.502-15.002 20.711 0 37.502 6.716 37.502 15.002v7.498c0 8.286-16.791 15.002-37.502 15.002-20.711 0-37.502-6.716-37.502-15.002v-7.498Z"/>
    <path fill="#252F3E" d="M212 241.629v16.875c0 8.274 16.791 14.996 37.502 14.996 20.711 0 37.502-6.716 37.502-15.002v-16.869a36.63 36.63 0 0 1-8.202 4.444c-7.869 3.15-18.236 4.927-29.3 4.927-11.059 0-21.426-1.783-29.295-4.927a36.623 36.623 0 0 1-8.201-4.444H212Z"/>
    <path fill="#252F3E" d="M287.004 271.633a36.67 36.67 0 0 1-8.202 4.438c-7.875 3.15-18.236 4.927-29.306 4.927-11.058 0-21.425-1.777-29.295-4.927a36.623 36.623 0 0 1-8.201-4.444v9.371c0 8.286 16.791 15.002 37.502 15.002 20.711 0 37.502-6.716 37.502-15.002v-9.365Z"/>
    <path fill="#41B883" d="M80 207h20l-50 86-50-86h38.25L50 226.942 61.5 207H80Z"/>
    <path fill="#41B883" d="m0 207 50 86 50-86H80l-30 51.6L19.75 207H0Z"/>
    <path fill="#35495E" d="m19.388 207 30.227 52.214L79.592 207H61.106l-11.491 20.082L37.874 207H19.388Z"/>
    <path fill="#252F3E" d="m786.387 108.568-25.91 9.73 9.298 5.862c-16.611 20.918-40.64 33.803-60.943 38.707l5.752 10.477c22.812-7.436 46.965-20.848 62.521-44.543l7.084 4.465 2.198-24.698Zm1.353 20.514-.844 9.633-9.017-5.695c-.316.474-.65.931-.984 1.406v56.179h13.71v-61.523h-2.865Zm-26.472 22.5a111.807 111.807 0 0 1-6.873 5.484v33.539h13.71v-39.023h-6.837Zm-21.745 14.766a138.49 138.49 0 0 1-7.628 3.726v20.531h13.71v-24.257h-6.082Zm-30.128 7.734v16.523h13.71v-16.523h-.998a177.47 177.47 0 0 1-7.796 2.689l-1.241.387-1.687-3.076h-1.988ZM521.333 106a8.304 8.304 0 0 0-8.333 8.333V181a8.334 8.334 0 0 0 8.333 8.333H538v-7.958l8.708-8.708h-25.375v-8.334h33.709l8.333-8.333h-42.042v-8.333h50.375l7.959-7.959V131l-25-25h-33.334Zm29.167 6.25 22.917 22.917H550.5V112.25Zm29.792 39.583a2.301 2.301 0 0 0-1.667.667l-4.25 4.25 8.708 8.667 4.25-4.209c.875-.916.875-2.416 0-3.291l-5.416-5.417a2.258 2.258 0 0 0-1.625-.667Zm-8.375 7.375-25.584 25.625v8.667H555l25.625-25.625-8.708-8.667Z"/>
    <path fill="#54AFF4" fill-rule="evenodd" d="M179.717 25.238c1.716-.45 3.739-.357 5.449 1.113 1.525 1.312 2.193 3.063 2.075 4.918-.104 1.644-.81 3.175-1.555 4.43-1.226 2.065-3.134 4.28-4.781 6.194-.339.393-.666.773-.975 1.137-2.145 2.53-6.243 5.984-9.61 8.678a233.2 233.2 0 0 1-5.874 4.544l-.384.286-.086.064c-.564.457-1.133.913-1.708 1.365v.1c.012 3.179 1.151 4.992 2.499 5.765 1.876 1.075 5.463 1.789 9.928 1.858 4.354.068 9.089-.48 12.973-1.55l.392-.107c8.513-2.342 22.25-6.121 30.442-11.556A40.992 40.992 0 0 0 220 51.433l.005-.11a23.326 23.326 0 0 1 1.1-6.08c.047-.144.089-.264.122-.358l.007-.027.011-.048c.041-.172.102-.416.182-.719.161-.605.404-1.453.739-2.451.664-1.98 1.715-4.63 3.25-7.165 1.046-1.725 2.574-3.575 4.493-4.565 1.001-.516 2.213-.85 3.536-.67 1.348.183 2.533.862 3.506 1.877 1.375 1.433 1.754 3.215 1.715 4.744-.039 1.48-.464 2.897-.908 4.02a20.964 20.964 0 0 1-1.423 2.875 20.795 20.795 0 0 1-.705 1.115l-.051.073-.016.024-.006.008-.002.003-.001.002.009-.013-.05.068v.001l-.008.01-.016.022-.058.076-.21.271c-.181.232-.443.562-.781.972a66.748 66.748 0 0 1-2.879 3.262 64.879 64.879 0 0 1-5.883 5.534c.302 1.944 1.115 3.864 2.824 5.43 3.097 2.842 5.63 4.427 9.186 5.38 3.715.997 8.667 1.34 16.707 1.34 7.75 0 18.75-1.809 27.967-3.668a368.416 368.416 0 0 0 15.047-3.375c.405-.1.719-.18.93-.233l.239-.06.077-.02.673 2.776.672 2.777-.088.023-.251.064-.956.239a373.22 373.22 0 0 1-15.279 3.427c-9.228 1.862-20.693 3.775-29.031 3.775-8.046 0-13.634-.325-18.102-1.523-4.626-1.241-7.918-3.377-11.477-6.642a14.389 14.389 0 0 1-3.982-6.168c-8.979 5.692-22.894 9.516-30.995 11.742l-.741.204c-4.437 1.221-9.687 1.818-14.487 1.743-4.687-.074-9.421-.792-12.538-2.579-2.626-1.506-4.239-4.076-4.94-7.086-6.322 4.29-13.731 7.833-23.879 9.142l-.046.006-.047.004c-12.886 1.21-21.832-1.611-33.161-7.76l2.582-5.066c10.675 5.793 18.535 8.2 30.031 7.13 10.573-1.374 17.797-5.388 24.348-10.297.562-3.736 2.115-7.81 4.69-11.891a62.815 62.815 0 0 1 5.784-7.796c2.088-2.394 4.898-5.457 7.69-7.557 1.384-1.04 2.961-1.998 4.592-2.427Zm47.099 20.222a61.344 61.344 0 0 0 3.399-3.782 42.884 42.884 0 0 0 .857-1.073l.022-.03.006-.008.105-.157c.095-.145.233-.362.393-.633.326-.552.717-1.285 1.025-2.063.319-.805.484-1.496.497-2.005.012-.443-.087-.541-.109-.563l-.003-.002c-.157-.164-.253-.215-.287-.228-.024 0-.127.009-.332.115-.619.319-1.477 1.171-2.269 2.479-1.238 2.045-2.128 4.262-2.712 6.002a34.588 34.588 0 0 0-.592 1.948Zm5.89-10.547s.006 0 .015.003a.068.068 0 0 1-.015-.003Zm2.857 9.055-.05.068.021-.027.019-.027.01-.014Zm-70.832 4.944a210.07 210.07 0 0 0 2.19-1.728c3.429-2.745 7.097-5.875 8.835-7.924.382-.45.761-.892 1.132-1.324 1.64-1.91 3.125-3.64 4.068-5.228.572-.963.733-1.543.75-1.813a.086.086 0 0 1 .007-.03c.007-.022.008-.024-.098-.116-.021-.017-.022-.018-.035-.02h-.006c-.044-.008-.194-.02-.488.058-.635.166-1.542.639-2.694 1.505-2.28 1.715-4.754 4.376-6.835 6.76a57.197 57.197 0 0 0-5.258 7.09 32.626 32.626 0 0 0-1.568 2.77ZM50 194c24.3 0 44-19.699 44-44s-19.7-44-44-44-44 19.699-44 44 19.7 44 44 44Zm0 6c27.614 0 50-22.386 50-50s-22.386-50-50-50-50 22.386-50 50 22.386 50 50 50Zm100.338-100 12.449 29.234 37.213.685-30.084 16.057L189 190.797l-44.416-31.3-43.183 23.049 22.363-37.721L100 128.079l33.328.613L150.338 100Zm-19.964 33.676-14.054-.259 10.021 7.061 4.033-6.802Zm.097 9.713 5.695-9.607 23.265.429 4.042 9.494-18.524 9.887-14.478-10.203Zm-2.577 4.347L114.92 169.62l25.054-13.372-12.08-8.512Zm21.666 9.105 27.87 19.64-11.975-28.124-15.895 8.484Zm18.374-15.517 12.6-6.725-15.585-.287 2.985 7.012Zm-10.666-12.191-18.147-.334 10.479-17.676 7.668 18.01Z" clip-rule="evenodd"/>
    <path fill="#fff" fill-rule="evenodd" d="M93 1.5A4.5 4.5 0 0 1 97.5 6v24a4.5 4.5 0 1 1-9 0V6A4.5 4.5 0 0 1 93 1.5ZM64 63a4.5 4.5 0 0 1-6.364.034l-41.102-40.67a4.5 4.5 0 0 1 6.33-6.398l41.102 40.67A4.5 4.5 0 0 1 64 63ZM42 94.5a4.5 4.5 0 0 1-5.295 3.53L13.03 93.295a4.5 4.5 0 0 1 1.765-8.825l23.675 4.735A4.5 4.5 0 0 1 42 94.5Z" clip-rule="evenodd"/>
    <path fill="#DD0031" d="m250 102-45 16.047 6.864 59.501L250 198.67l38.136-21.122L295 118.047 250 102Z"/>
    <path fill="#C3002F" d="M250 102v10.73-.048 85.988l38.136-21.122L295 118.047 250 102Z"/>
    <path fill="#fff" d="m250 112.682-28.131 63.077h10.489l5.655-14.113h23.877l5.656 14.113h10.488L250 112.682Zm8.217 40.263h-16.434L250 133.176l8.217 19.769Z"/>
    <path fill="#252F3E" d="M438.221 39.183c0 1.597.176 2.892.484 3.841.351.95.79 1.985 1.405 3.108.22.345.308.69.308.992 0 .432-.264.863-.835 1.295l-2.767 1.813c-.396.259-.791.388-1.142.388-.44 0-.879-.216-1.318-.604a13.429 13.429 0 0 1-1.582-2.029 33.243 33.243 0 0 1-1.361-2.546c-3.427 3.97-7.732 5.956-12.915 5.956-3.69 0-6.634-1.036-8.786-3.108-2.153-2.071-3.251-4.833-3.251-8.286 0-3.669 1.318-6.647 3.998-8.89 2.679-2.245 6.237-3.367 10.762-3.367 1.494 0 3.031.13 4.657.345 1.625.216 3.294.561 5.051.95V25.89c0-3.28-.703-5.568-2.064-6.906-1.406-1.338-3.778-1.985-7.161-1.985a20.32 20.32 0 0 0-4.744.561 35.447 35.447 0 0 0-4.744 1.468c-.703.302-1.23.474-1.538.56-.307.087-.527.13-.703.13-.615 0-.922-.431-.922-1.338v-2.115c0-.69.088-1.208.307-1.51.22-.302.615-.604 1.23-.907 1.538-.776 3.383-1.424 5.535-1.942 2.153-.56 4.437-.82 6.853-.82 5.228 0 9.05 1.166 11.51 3.496 2.416 2.33 3.646 5.87 3.646 10.617v13.984h.087Zm-17.835 6.56c1.45 0 2.944-.259 4.525-.777 1.582-.518 2.987-1.467 4.173-2.762.703-.82 1.23-1.726 1.494-2.762.263-1.036.439-2.288.439-3.755v-1.813a37.295 37.295 0 0 0-4.041-.733 33.702 33.702 0 0 0-4.13-.26c-2.943 0-5.095.562-6.545 1.727-1.449 1.165-2.152 2.805-2.152 4.963 0 2.029.527 3.54 1.625 4.575 1.054 1.08 2.592 1.597 4.612 1.597Zm35.275 4.661c-.791 0-1.318-.13-1.669-.431-.352-.26-.659-.864-.923-1.684l-10.323-33.361c-.264-.864-.395-1.425-.395-1.727 0-.69.351-1.079 1.054-1.079h4.305c.835 0 1.406.13 1.713.432.352.259.615.863.879 1.683l7.38 28.571 6.853-28.571c.219-.863.483-1.424.834-1.683.352-.26.967-.432 1.757-.432h3.515c.834 0 1.405.13 1.757.432.351.259.659.863.834 1.683l6.941 28.917 7.6-28.917c.263-.863.571-1.424.878-1.683.352-.26.923-.432 1.713-.432h4.086c.703 0 1.098.345 1.098 1.08 0 .215-.044.43-.088.69a6.113 6.113 0 0 1-.307 1.079l-10.587 33.362c-.264.863-.571 1.424-.923 1.683-.351.259-.922.431-1.669.431h-3.778c-.834 0-1.405-.13-1.757-.431-.351-.302-.659-.863-.835-1.727l-6.808-27.837-6.765 27.794c-.22.863-.484 1.424-.835 1.727-.351.302-.966.431-1.757.431h-3.778Zm56.448 1.165c-2.284 0-4.569-.258-6.765-.776-2.196-.518-3.91-1.08-5.052-1.727-.703-.388-1.186-.82-1.362-1.208a3.012 3.012 0 0 1-.263-1.209v-2.2c0-.907.351-1.339 1.01-1.339.264 0 .527.044.791.13.264.086.659.259 1.098.431a24.214 24.214 0 0 0 4.832 1.511c1.757.345 3.471.518 5.228.518 2.767 0 4.92-.475 6.413-1.424 1.494-.95 2.285-2.33 2.285-4.1 0-1.209-.396-2.202-1.186-3.022-.791-.82-2.285-1.553-4.437-2.244l-6.37-1.942c-3.207-.993-5.579-2.46-7.028-4.402-1.45-1.9-2.197-4.014-2.197-6.258 0-1.813.396-3.41 1.186-4.791a11.162 11.162 0 0 1 3.163-3.539c1.318-.993 2.811-1.726 4.569-2.244 1.757-.518 3.602-.734 5.535-.734.966 0 1.976.043 2.943.173 1.01.13 1.933.302 2.855.474.879.216 1.713.432 2.504.69.791.26 1.406.519 1.845.778.615.345 1.054.69 1.318 1.079.263.345.395.82.395 1.424v2.028c0 .907-.351 1.382-1.01 1.382-.352 0-.923-.173-1.669-.518-2.504-1.123-5.316-1.684-8.435-1.684-2.504 0-4.48.389-5.842 1.209-1.362.82-2.065 2.072-2.065 3.841 0 1.208.44 2.244 1.318 3.064.879.82 2.504 1.64 4.832 2.374l6.238 1.942c3.163.993 5.447 2.374 6.809 4.144s2.021 3.798 2.021 6.042c0 1.856-.396 3.539-1.142 5.006-.791 1.468-1.845 2.763-3.207 3.798-1.362 1.08-2.987 1.856-4.876 2.417-1.977.604-4.042.907-6.282.907Z"/>
    <path fill="#F90" fill-rule="evenodd" d="M520.411 72.545C505.959 83.032 484.961 88.6 466.907 88.6c-25.303 0-48.102-9.193-65.322-24.471-1.362-1.209-.132-2.849 1.494-1.9 18.625 10.618 41.6 17.049 65.365 17.049 16.034 0 33.649-3.28 49.859-10.013 2.416-1.08 4.481 1.553 2.108 3.28Z" clip-rule="evenodd"/>
    <path fill="#F90" fill-rule="evenodd" d="M526.43 65.812c-1.845-2.33-12.213-1.122-16.913-.561-1.406.173-1.625-1.036-.351-1.942 8.258-5.697 21.832-4.057 23.414-2.158 1.581 1.942-.44 15.278-8.171 21.666-1.186.992-2.328.475-1.801-.82 1.757-4.273 5.667-13.897 3.822-16.185Z" clip-rule="evenodd"/>
    <path fill="#0089D6" d="M446.262 183.456c12.848-2.274 23.46-4.155 23.581-4.181l.222-.047-12.129-14.455c-6.672-7.95-12.13-14.485-12.13-14.523 0-.071 12.525-34.626 12.595-34.749.024-.041 8.547 14.702 20.662 35.738l20.779 36.084.158.277-38.548-.005-38.549-.005 23.359-4.134ZM400 179.048c0-.02 5.715-9.96 12.701-22.089l12.701-22.051 14.801-12.445c8.141-6.844 14.823-12.452 14.85-12.463.027-.01-.08.26-.238.6l-16.072 34.538-15.786 33.918-11.478.015c-6.314.007-11.479-.003-11.479-.023Z"/>
    <path fill="#5FB832" d="M389.865 172.003c-12.185 16.419-38.213 10.877-54.901 11.674 0 0-2.954.166-5.929.662 0 0 1.125-.486 2.56-.986 11.72-4.099 17.259-4.923 24.381-8.623 13.381-6.932 26.698-22.033 29.407-37.72-5.093 15.087-20.583 28.073-34.688 33.346-9.654 3.603-27.112 7.109-27.115 7.111.008.012-.696-.37-.705-.378-11.873-5.843-12.216-31.851 9.348-40.235 9.454-3.678 18.498-1.658 28.718-4.118 10.901-2.622 23.527-10.886 28.658-21.69 5.753 17.258 12.664 44.259.266 60.957Zm.212-66.305c-1.451 3.485-3.221 6.626-5.262 9.436-8.983-9.325-21.52-15.134-35.379-15.134C322.175 100 300 122.431 300 149.997c0 14.451 6.099 27.485 15.822 36.62l1.083.97a4.31 4.31 0 0 1-.621-6.006 4.197 4.197 0 0 1 5.941-.632c1.813 1.486 2.09 4.178.621 6.011a4.188 4.188 0 0 1-5.936.631l.737.66c8.601 7.325 19.688 11.749 31.789 11.749 26.057 0 47.453-20.509 49.285-46.395 1.356-12.674-2.345-28.768-8.644-47.907Z"/>
    <path fill="#F0DB4F" d="M876.562 0h-53.124C810.493 0 800 10.493 800 23.438v53.124C800 89.507 810.493 100 823.438 100h53.124C889.507 100 900 89.507 900 76.562V23.438C900 10.492 889.507 0 876.562 0Z"/>
    <path fill="#323330" d="m826.294 83.567 7.652-4.631c1.477 2.617 2.82 4.832 6.041 4.832 3.088 0 5.035-1.207 5.035-5.906V45.91h9.398v32.085c0 9.733-5.706 14.164-14.03 14.164-7.518 0-11.881-3.894-14.097-8.593m33.231-1.006 7.651-4.43c2.015 3.29 4.633 5.706 9.264 5.706 3.894 0 6.377-1.947 6.377-4.632 0-3.222-2.551-4.363-6.847-6.242l-2.349-1.008c-6.78-2.886-11.277-6.51-11.277-14.163 0-7.048 5.37-12.419 13.761-12.419 5.974 0 10.27 2.081 13.358 7.519l-7.317 4.698c-1.611-2.886-3.356-4.027-6.041-4.027-2.752 0-4.498 1.745-4.498 4.027 0 2.82 1.746 3.961 5.773 5.707l2.349 1.006c7.988 3.424 12.486 6.914 12.486 14.767 0 8.46-6.646 13.09-15.573 13.09-8.727 0-14.365-4.161-17.117-9.599Z"/>
    <mask id="e" width="100" height="100" x="600" y="0" maskUnits="userSpaceOnUse" style="mask-type:luminance">
      <path fill="#fff" d="M676.562 0h-53.124C610.493 0 600 10.493 600 23.438v53.124C600 89.507 610.493 100 623.438 100h53.124C689.507 100 700 89.507 700 76.562V23.438C700 10.492 689.507 0 676.562 0Z"/>
    </mask>
    <g mask="url(#e)">
      <path fill="#59B943" d="M676.562 0h-53.124C610.493 0 600 10.493 600 23.438v53.124C600 89.507 610.493 100 623.438 100h53.124C689.507 100 700 89.507 700 76.562V23.438C700 10.492 689.507 0 676.562 0Z"/>
      <path fill="#fff" fill-rule="evenodd" d="M691.319-2.344H700v104.297h-.807a.777.777 0 0 0 .294-.057.778.778 0 0 0 .416-.416.76.76 0 0 0 .059-.294V13.178a.711.711 0 0 0-.446-.905.717.717 0 0 0-.907.445l-32.296 36.166a.987.987 0 0 1-1.445 0l-16.486-16.963a.978.978 0 0 1 0-1.227l5.443-6.963a.992.992 0 0 1 .8-.41.985.985 0 0 1 .8.41l9.227 10.184a.99.99 0 0 0 1.169.258.98.98 0 0 0 .338-.258L691.873-1.24a.712.712 0 0 0 .049-.715.71.71 0 0 0-.603-.39Zm-90.55 0H600v.767a.767.767 0 0 1 .769-.767ZM600 101.186v.767h.769a.775.775 0 0 1-.71-.473.76.76 0 0 1-.059-.294Zm66.003-37.499a7.635 7.635 0 0 0-5.214 1.845 7.545 7.545 0 0 0-2.578 4.867.248.248 0 0 0 .046.213.25.25 0 0 0 .198.091h15.127a.253.253 0 0 0 .184-.082.226.226 0 0 0 .051-.089.222.222 0 0 0 .009-.102 7.303 7.303 0 0 0-2.518-4.969 7.392 7.392 0 0 0-5.305-1.773Zm-55.792 20.69a24.896 24.896 0 0 0 17.655 6.134h-.031c11.658 0 17.286-5.95 17.286-13.743 0-9.772-9.093-11.949-16.266-13.666-4.669-1.118-8.524-2.041-8.524-4.739 0-2.577 2.214-4.325 6.151-4.325a18.734 18.734 0 0 1 11.811 4.05.95.95 0 0 0 1.093.102.946.946 0 0 0 .291-.256l3.783-5.246a.949.949 0 0 0 0-1.319 24.278 24.278 0 0 0-16.148-5.399c-10.211 0-16.362 5.952-16.362 13.099 0 9.61 8.749 11.682 15.865 13.367 4.877 1.155 8.987 2.128 8.987 5.222 0 2.454-2.461 4.785-7.505 4.785a18.94 18.94 0 0 1-12.918-5.03.956.956 0 0 0-1.323.337l-3.845 5.368a.951.951 0 0 0 0 1.258Zm71.793-8.471a.829.829 0 0 0 .057-.334l-.031-.981c0-10.46-6.49-17.608-16.055-17.608a16.348 16.348 0 0 0-11.896 4.832 16.288 16.288 0 0 0-3.581 5.477 16.244 16.244 0 0 0-1.132 6.44 16.162 16.162 0 0 0 4.838 12.184 16.271 16.271 0 0 0 12.294 4.626 20.552 20.552 0 0 0 12.61-3.927.856.856 0 0 0 .185-1.134l-2.768-4.02a.834.834 0 0 0-1.231-.183 14.235 14.235 0 0 1-7.874 2.577 8.664 8.664 0 0 1-5.999-1.772 8.618 8.618 0 0 1-3.228-5.345.283.283 0 0 1 .059-.205.278.278 0 0 1 .187-.102H681.2a.835.835 0 0 0 .804-.525Z" clip-rule="evenodd"/>
    </g>
    <rect width="99" height="98" x="700.5" y="1.5" fill="#fff" rx="22.5"/>
    <path fill="#404142" d="m762.07 60.696-3.448 3.558h13.794l13.793 12.453h-72.415l13.793-12.453h10.346l-3.453-3.558h-10.341L700 82.045h100l-24.137-21.349H762.07Z"/>
    <path fill="#37B5E5" d="M792.744 26.625 784.165 18 748.14 54.233 734.418 40.43l-8.576 8.627 22.301 22.43 44.601-44.859v-.002Z"/>
    <rect width="99" height="98" x="700.5" y="1.5" stroke="#37B5E5" rx="22.5"/>
    <path fill="#000" d="M398.532 59.881c-.581-1.76-2.103-2.987-4.072-3.282-.928-.138-1.991-.08-3.249.18-2.192.453-3.819.625-5.006.658 4.481-7.57 8.124-16.202 10.222-24.328 3.391-13.14 1.579-19.126-.539-21.834C390.283 4.11 382.105.26 372.24.141c-5.263-.064-9.883.975-12.294 1.723-2.244-.396-4.656-.617-7.188-.658-4.746-.076-8.939.96-12.522 3.087a57.065 57.065 0 0 0-8.844-2.221c-8.646-1.42-15.615-.314-20.713 3.29-6.172 4.362-9.034 11.943-8.504 22.53.168 3.361 2.047 13.588 5.005 23.287 1.701 5.575 3.514 10.205 5.39 13.762 2.66 5.043 5.506 8.013 8.701 9.08 1.791.597 5.045 1.015 8.468-1.837.433.526 1.012 1.048 1.78 1.533a11.853 11.853 0 0 0 3.36 1.417c4.293 1.074 8.314.805 11.745-.7.021.61.037 1.194.051 1.698.023.817.045 1.618.075 2.367.204 5.066.548 9.005 1.569 11.761.056.152.131.383.21.628.51 1.56 1.361 4.171 3.527 6.216 2.243 2.119 4.956 2.768 7.441 2.768 1.246 0 2.435-.163 3.478-.387 3.717-.797 7.939-2.011 10.993-6.363 2.888-4.114 4.291-10.31 4.545-20.072l.093-.79.06-.517.68.06.176.012c3.786.172 8.415-.63 11.259-1.953 2.246-1.043 9.446-4.846 7.751-9.98Z"/>
    <path fill="#336791" d="M392.058 60.88c-11.258 2.323-12.032-1.49-12.032-1.49 11.886-17.65 16.855-40.052 12.567-45.535-11.698-14.957-31.948-7.883-32.286-7.7l-.109.02c-2.224-.462-4.713-.737-7.511-.783-5.094-.083-8.958 1.336-11.89 3.561 0 0-36.124-14.891-34.444 18.73.357 7.151 10.245 54.118 22.038 39.932 4.31-5.188 8.476-9.574 8.476-9.574 2.068 1.375 4.544 2.077 7.14 1.825l.202-.171c-.063.644-.034 1.273.081 2.02-3.038 3.396-2.145 3.992-8.219 5.243-6.145 1.268-2.535 3.524-.178 4.114 2.858.715 9.468 1.728 13.935-4.53l-.178.714c1.19.955 2.026 6.206 1.886 10.967-.14 4.76-.233 8.03.704 10.582.939 2.553 1.873 8.298 9.858 6.586 6.671-1.43 10.128-5.138 10.609-11.322.341-4.396 1.114-3.746 1.162-7.677l.62-1.86c.714-5.96.113-7.883 4.223-6.988l1 .087c3.024.138 6.984-.487 9.308-1.567 5.003-2.324 7.971-6.204 3.037-5.184h.001Z"/>
    <path fill="#fff" d="M342.912 30.88c-1.015-.14-1.934-.01-2.399.342a.882.882 0 0 0-.364.586c-.058.419.235.881.415 1.12.51.676 1.254 1.14 1.991 1.242.106.016.213.022.318.022 1.229 0 2.346-.957 2.444-1.663.123-.885-1.16-1.475-2.405-1.648Zm33.608.029c-.097-.694-1.33-.892-2.501-.729-1.168.163-2.302.691-2.207 1.386.076.54 1.051 1.463 2.206 1.463.097 0 .196-.006.295-.02.771-.107 1.336-.596 1.605-.879.409-.43.646-.91.602-1.221Z"/>
    <path fill="#fff" d="M395.804 60.615c-.429-1.298-1.811-1.716-4.106-1.242-6.816 1.408-9.257.433-10.058-.158 5.297-8.076 9.656-17.838 12.007-26.946 1.113-4.314 1.728-8.32 1.779-11.587.055-3.584-.555-6.218-1.813-7.827-5.073-6.487-12.519-9.967-21.532-10.062-6.197-.07-11.432 1.517-12.447 1.963a31.008 31.008 0 0 0-7.004-.9c-4.651-.075-8.672 1.04-12.001 3.31a53.548 53.548 0 0 0-9.753-2.558c-7.901-1.273-14.18-.309-18.66 2.867-5.346 3.79-7.814 10.566-7.336 20.137.161 3.22 1.994 13.126 4.888 22.613 3.809 12.486 7.949 19.555 12.305 21.009a5.51 5.51 0 0 0 1.747.289c1.589 0 3.537-.717 5.564-3.156a200.813 200.813 0 0 1 7.67-8.684 12.353 12.353 0 0 0 5.518 1.485l.013.151c-.331.395-.655.796-.973 1.203-1.333 1.693-1.61 2.046-5.902 2.93-1.221.252-4.463.92-4.511 3.195-.051 2.485 3.833 3.528 4.276 3.639 1.542.386 3.028.577 4.445.577 3.445 0 6.478-1.133 8.901-3.326-.074 8.858.295 17.587 1.358 20.246.87 2.178 2.997 7.498 9.715 7.498.986 0 2.07-.115 3.264-.37 7.011-1.505 10.056-4.605 11.233-11.441.631-3.654 1.712-12.378 2.221-17.057 1.073.335 2.455.489 3.95.488 3.116 0 6.711-.662 8.966-1.71 2.534-1.177 7.105-4.066 6.276-6.576Zm-16.696-31.62c-.023 1.38-.213 2.635-.415 3.944-.216 1.408-.441 2.864-.497 4.63-.056 1.72.159 3.508.366 5.237.42 3.493.85 7.088-.816 10.636-.276-.49-.523-.998-.738-1.519-.207-.502-.657-1.309-1.279-2.425-2.423-4.347-8.095-14.527-5.191-18.68.865-1.237 3.06-2.508 8.57-1.824ZM372.429 5.59c8.076.179 14.464 3.202 18.987 8.985 3.469 4.436-.351 24.62-11.409 42.034-.112-.142-.223-.283-.336-.423l-.14-.175c2.858-4.723 2.299-9.395 1.802-13.538-.205-1.7-.398-3.305-.349-4.813.051-1.599.262-2.97.467-4.296.251-1.634.506-3.324.436-5.317.052-.21.074-.456.046-.75-.18-1.91-2.36-7.63-6.804-12.806-2.431-2.832-5.976-6-10.817-8.137 2.082-.432 4.929-.835 8.117-.764Zm-45.19 60.993c-2.233 2.687-3.776 2.172-4.283 2.003-3.304-1.103-7.139-8.093-10.52-19.176-2.925-9.59-4.635-19.234-4.77-21.938-.427-8.552 1.644-14.513 6.158-17.716 7.345-5.212 19.421-2.092 24.274-.51-.07.07-.142.134-.211.204-7.963 8.047-7.774 21.795-7.755 22.636 0 .324.027.783.064 1.414.137 2.313.392 6.617-.289 11.49-.633 4.53.762 8.963 3.827 12.163.315.328.645.64.991.935a204.776 204.776 0 0 0-7.486 8.495Zm8.509-11.361c-2.47-2.58-3.592-6.168-3.078-9.845.719-5.149.454-9.633.311-12.042-.02-.337-.038-.632-.048-.865 1.163-1.032 6.554-3.923 10.398-3.041 1.755.402 2.824 1.597 3.268 3.653 2.3 10.645.304 15.082-1.299 18.648-.331.734-.643 1.428-.909 2.147l-.207.555c-.523 1.404-1.01 2.709-1.312 3.948-2.626-.007-5.181-1.13-7.124-3.159Zm.404 14.356c-.767-.192-1.457-.525-1.862-.801.338-.16.94-.376 1.983-.591 5.049-1.04 5.828-1.774 7.531-3.937.39-.496.833-1.058 1.446-1.743l.001-.001c.912-1.023 1.33-.85 2.087-.535.613.254 1.211 1.024 1.453 1.87.115.4.244 1.16-.177 1.75-3.557 4.984-8.74 4.92-12.462 3.988Zm26.422 24.603c-6.177 1.324-8.364-1.83-9.805-5.434-.93-2.328-1.387-12.822-1.063-24.412a1.413 1.413 0 0 0-.06-.443 5.865 5.865 0 0 0-.173-.82c-.482-1.686-1.657-3.096-3.067-3.681-.561-.232-1.589-.658-2.824-.342.263-1.087.72-2.313 1.216-3.642l.208-.558c.233-.63.527-1.283.838-1.974 1.678-3.73 3.976-8.84 1.482-20.383-.935-4.323-4.055-6.434-8.784-5.944-2.835.294-5.43 1.438-6.723 2.095-.279.14-.533.277-.771.41.361-4.356 1.726-12.497 6.829-17.648 3.214-3.242 7.493-4.844 12.707-4.758 10.274.169 16.862 5.444 20.58 9.84 3.204 3.79 4.939 7.605 5.631 9.664-5.207-.53-8.748.498-10.543 3.066-3.905 5.587 2.137 16.43 5.04 21.64.533.955.993 1.78 1.137 2.131.946 2.294 2.17 3.825 3.064 4.942.274.342.539.675.742.965-1.577.455-4.41 1.506-4.152 6.76-.208 2.636-1.689 14.98-2.441 19.34-.993 5.762-3.111 7.908-9.068 9.186Zm25.78-29.522c-1.613.75-4.311 1.311-6.875 1.432-2.831.133-4.273-.317-4.612-.594-.159-3.275 1.059-3.617 2.348-3.979.202-.057.4-.112.591-.179.118.097.248.192.39.286 2.276 1.503 6.335 1.666 12.066.482l.063-.013c-.773.723-2.096 1.694-3.971 2.565Z"/>
    <path fill="#252F3E" d="M650 112.513a12.498 12.498 0 0 0-8.83 3.657 12.492 12.492 0 0 0-2.707 13.609A12.492 12.492 0 0 0 650 137.488a12.487 12.487 0 0 0 0-24.975Zm28.125 6.237a9.376 9.376 0 1 0 .001 18.752 9.376 9.376 0 0 0-.001-18.752Zm-56.25 0a9.376 9.376 0 1 0 .001 18.752 9.376 9.376 0 0 0-.001-18.752Zm9.375 31.206a6.252 6.252 0 0 1 6.25-6.206h25c1.658 0 3.247.658 4.419 1.831A6.245 6.245 0 0 1 668.75 150v18.75a18.87 18.87 0 0 1-.912 5.794 18.754 18.754 0 0 1-20.765 12.708 18.757 18.757 0 0 1-15.823-18.502v-18.794ZM625 150c0-2.281.606-4.412 1.675-6.25H612.5a6.245 6.245 0 0 0-4.419 1.831A6.245 6.245 0 0 0 606.25 150v15.625a15.617 15.617 0 0 0 13.988 15.544 15.622 15.622 0 0 0 7.487-1.05A24.895 24.895 0 0 1 625 168.744V150Zm50 0v18.75c0 4.094-.981 7.956-2.725 11.369a15.622 15.622 0 0 0 19.648-7.158 15.613 15.613 0 0 0 1.827-7.336V150a6.245 6.245 0 0 0-1.831-4.419 6.245 6.245 0 0 0-4.419-1.831h-14.175A12.437 12.437 0 0 1 675 150Zm208.333-33.333a8.334 8.334 0 0 1 8.334 8.333v41.667a8.305 8.305 0 0 1-8.334 8.333H900v8.333H800V175h16.667a8.334 8.334 0 0 1-8.334-8.333V125a8.305 8.305 0 0 1 8.334-8.333h66.666Zm0 8.333h-66.666v41.667h66.666V125ZM850 150c9.208 0 16.667 3.75 16.667 8.333v4.167h-33.334v-4.167c0-4.583 7.459-8.333 16.667-8.333Zm0-20.833c2.21 0 4.33.878 5.893 2.44a8.338 8.338 0 0 1 0 11.786 8.338 8.338 0 0 1-5.893 2.44 8.304 8.304 0 0 1-8.333-8.333c0-4.625 3.75-8.333 8.333-8.333ZM100 274v-46.366h32.057v10.142h-19.679v7.97h17.72v10.142h-17.72V274H100Zm33.004 0v-9.056l17.008-14.308a39.015 39.015 0 0 0 2.895-2.672c.816-.845 1.439-1.713 1.87-2.603.445-.891.667-1.879.667-2.966 0-1.192-.252-2.211-.757-3.056a4.924 4.924 0 0 0-2.048-1.947c-.875-.468-1.884-.702-3.027-.702-1.143 0-2.152.234-3.028.702-.861.467-1.528 1.154-2.003 2.06-.475.905-.713 2.007-.713 3.305h-11.754c0-3.26.72-6.067 2.159-8.422 1.44-2.354 3.473-4.165 6.1-5.433C143 227.634 146.08 227 149.612 227c3.651 0 6.812.596 9.483 1.789 2.687 1.177 4.757 2.837 6.211 4.98 1.47 2.143 2.204 4.656 2.204 7.539 0 1.781-.363 3.555-1.091 5.321-.727 1.75-2.033 3.69-3.918 5.818-1.884 2.128-4.563 4.664-8.036 7.607l-4.274 3.622v.272H168V274h-34.996ZM200 274v-46.366h-32.057v10.142h19.679v7.97h-17.72v10.142h17.72V274H200Z"/>
  </g>
  <defs>
    <clipPath id="a">
      <path fill="#fff" d="M0 0h900v400H0z"/>
    </clipPath>
    <clipPath id="b">
      <path fill="#fff" d="M0 0h100v100H0z" transform="rotate(90 300 600)"/>
    </clipPath>
    <clipPath id="c">
      <path fill="#fff" d="M0 0h100v100H0z" transform="translate(700 200)"/>
    </clipPath>
    <clipPath id="d">
      <path fill="#fff" d="M0 0h100v100H0z" transform="translate(600 200)"/>
    </clipPath>
  </defs>
</svg>
